<?xml version="1.0" encoding="UTF-8"?><!DOCTYPE svg PUBLIC "-//W3C//DTD SVG 1.1//EN" "http://www.w3.org/Graphics/SVG/1.1/DTD/svg11.dtd"><svg xmlns="http://www.w3.org/2000/svg" xmlns:xlink="http://www.w3.org/1999/xlink"><symbol id="blog-post-arrow" viewBox="0 0 14 9"><path d="M1 1l6 6 6-6" stroke-width="1.5"/></symbol><symbol id="blog-toggle-down" viewBox="0 0 14 9"><path d="M1 1l6 6 6-6" stroke-width="1.5"/></symbol><symbol id="close" viewBox="0 0 20 20"><path d="M18 2L2 18M2 2l16 16" stroke-width="1.5"/></symbol><symbol id="faq-arrow" viewBox="0 0 16 10"><path d="M1 1l7 7 7-7" stroke-width="1.5"/></symbol><symbol id="leadership-plus" viewBox="0 0 50 50"><rect x="1" y="1" width="48" height="48" rx="24" stroke-width="1.5"/><path d="M25 17v16M17 25h16" stroke-width="1.5"/></symbol><symbol id="post-views" viewBox="0 0 22 22"><path d="M6 7v8m5-5v5m5-7v7M1 1h20v20H1V1z" stroke-width="1.5"/></symbol><symbol id="search" viewBox="0 0 21 21"><path d="M9 17A8 8 0 109 1a8 8 0 000 16zM15 15l4 4" stroke-width="1.5" stroke-miterlimit="10" stroke-linecap="square"/></symbol><symbol id="swiper-left-arrow" viewBox="0 0 22 20"><path d="M11 1l-9 9m0 0l9 9m-9-9h20" stroke-width="1.5"/></symbol><symbol id="swiper-right-arrow" viewBox="0 0 22 20"><path d="M11 1l9 9m0 0l-9 9m9-9H0" stroke-width="1.5"/></symbol><symbol id="testimonials-icon" viewBox="0 0 51 27"><path d="M2 8v6c0 6.627 5.373 12 12 12v0c6.627 0 12-5.373 12-12v0c0-6.627-5.373-12-12-12v0H8M26 2h12c6.627 0 12 5.373 12 12v0c0 6.627-5.373 12-12 12v0c-6.627 0-12-5.373-12-12V2z"/><circle cx="2" cy="2" r="2"/></symbol><symbol id="toggle-down" viewBox="0 0 12 8"><path d="M1 1l5 5 5-5" stroke-width="1.5"/></symbol></svg>