<?xml version="1.0" encoding="UTF-8"?><!DOCTYPE svg PUBLIC "-//W3C//DTD SVG 1.1//EN" "http://www.w3.org/Graphics/SVG/1.1/DTD/svg11.dtd"><svg xmlns="http://www.w3.org/2000/svg" xmlns:xlink="http://www.w3.org/1999/xlink"><symbol id="blog-post-arrow" viewBox="0 0 14 9"><path d="M1 1l6 6 6-6" stroke-width="1.5"/></symbol><symbol id="blog-toggle-down" viewBox="0 0 14 9"><path d="M1 1l6 6 6-6" stroke-width="1.5"/></symbol><symbol id="close" viewBox="0 0 20 20"><path d="M18 2L2 18M2 2l16 16" stroke-width="1.5"/></symbol><symbol id="faq-arrow" viewBox="0 0 16 10"><path d="M1 1l7 7 7-7" stroke-width="1.5"/></symbol><symbol id="leadership-plus" viewBox="0 0 50 50"><rect x="1" y="1" width="48" height="48" rx="24" stroke-width="1.5"/><path d="M25 17v16M17 25h16" stroke-width="1.5"/></symbol><symbol id="post-views" viewBox="0 0 22 22"><path d="M6 7v8m5-5v5m5-7v7M1 1h20v20H1V1z" stroke-width="1.5"/></symbol><symbol id="quote-icon" viewBox="0 0 26 20"><path d="M19.855 0c1.785 0 3.256.637 4.412 1.912C25.422 3.187 26 4.834 26 6.852c0 3.613-1.024 6.614-3.073 9.005-1.996 2.39-4.753 3.771-8.272 4.143v-1.833c1.89-.425 3.571-1.38 5.042-2.868 1.47-1.54 2.259-3.347 2.364-5.419-1.366.425-2.627.479-3.782.16-1.103-.319-1.996-.903-2.679-1.753-.63-.903-.945-1.886-.945-2.948 0-1.54.498-2.816 1.496-3.825C17.15.504 18.384 0 19.855 0zM5.2 0c1.786 0 3.257.637 4.412 1.912 1.156 1.275 1.733 2.922 1.733 4.94 0 3.613-1.024 6.614-3.072 9.005C6.277 18.247 3.519 19.628 0 20v-1.833c1.89-.425 3.572-1.38 5.042-2.868 1.471-1.54 2.259-3.347 2.364-5.419-1.366.425-2.626.479-3.782.16C2.521 9.72 1.628 9.137.945 8.287.315 7.384 0 6.4 0 5.339c0-1.54.499-2.816 1.497-3.825C2.495.504 3.729 0 5.2 0z"/></symbol><symbol id="search" viewBox="0 0 21 21"><path d="M9 17A8 8 0 109 1a8 8 0 000 16zM15 15l4 4" stroke-width="1.5" stroke-miterlimit="10" stroke-linecap="square"/></symbol><symbol id="swiper-left-arrow" viewBox="0 0 22 20"><path d="M11 1l-9 9m0 0l9 9m-9-9h20" stroke-width="1.5"/></symbol><symbol id="swiper-right-arrow" viewBox="0 0 22 20"><path d="M11 1l9 9m0 0l-9 9m9-9H0" stroke-width="1.5"/></symbol><symbol id="testimonials-icon" viewBox="0 0 51 27"><path d="M2 8v6c0 6.627 5.373 12 12 12v0c6.627 0 12-5.373 12-12v0c0-6.627-5.373-12-12-12v0H8M26 2h12c6.627 0 12 5.373 12 12v0c0 6.627-5.373 12-12 12v0c-6.627 0-12-5.373-12-12V2z"/><circle cx="2" cy="2" r="2"/></symbol><symbol id="toggle-down" viewBox="0 0 12 8"><path d="M1 1l5 5 5-5" stroke-width="1.5"/></symbol></svg>