<svg width="24" height="24" viewBox="0 0 24 24" fill="none" xmlns="http://www.w3.org/2000/svg">
  <path d="M5.75 18.25a4.5 4.5 0 00-4.5 4.5v.5h9v-.5a4.5 4.5 0 00-4.5-4.5zM5.75 15.25a2.5 2.5 0 100-5 2.5 2.5 0 000 5zM18.75 18.25a4.5 4.5 0 00-4.5 4.5v.5h9v-.5a4.5 4.5 0 00-4.5-4.5zM18.75 15.25a2.5 2.5 0 100-5 2.5 2.5 0 000 5z" stroke="#C47900" stroke-width="1.5" stroke-miterlimit="10" stroke-linecap="square"/>
  <path d="M22.25 1.25h-9a1 1 0 00-1 1v8l4-4h6a1 1 0 001-1v-3a1 1 0 00-1-1z" fill="#C47900" stroke="#C47900" stroke-width="1.5" stroke-miterlimit="10" stroke-linecap="square"/>
</svg>
