<svg width="23" height="24" viewBox="0 0 23 24" fill="none" xmlns="http://www.w3.org/2000/svg">
  <path d="M4.672 4.564l1.54 1.265 1.57 1.677-.387 2.615-2.475 1.253-1.307 1.115.636 1.085 1.248 1.338.674 2.36-1.874 1.572-.343 1.458M9.64 23.126l-.165-1.059 1.955-2.112.967-2.655 3.096-1.175 3 .599 1.653 1.602M21.643 11.25a10.487 10.487 0 11-7.468-8.587" stroke="#C47900" stroke-width="1.5" stroke-miterlimit="10"/>
  <path d="M21.25 5.25c0 2.469-4 6-4 6s-4-3.531-4-6a4 4 0 118 0z" fill="#C47900"/>
  <path d="M21.25 5.25h-.75.75zm-4 6l-.496.562.496.438.496-.438-.496-.562zm0-10V.5v.75zm3.25 4c0 .432-.181.983-.531 1.616-.343.62-.81 1.252-1.294 1.828a21.052 21.052 0 01-1.883 1.96l-.03.026a.354.354 0 01-.007.007h-.001l.496.563.497.562v-.001c.002 0 .003-.002.004-.003l.01-.009.037-.033.134-.123a22.61 22.61 0 001.893-1.985c.517-.616 1.05-1.33 1.456-2.066.4-.723.719-1.54.719-2.342h-1.5zm-3.25 6l.497-.562-.002-.002a.354.354 0 01-.007-.006l-.03-.027a19.505 19.505 0 01-.556-.528c-.364-.358-.847-.859-1.328-1.431-.482-.576-.95-1.207-1.293-1.828C14.181 6.233 14 5.682 14 5.25h-1.5c0 .803.319 1.619.719 2.342.407.736.94 1.45 1.457 2.066a22.61 22.61 0 002.026 2.108l.037.033.01.01a.045.045 0 00.003.002h.001v.001l.497-.562zm-3.25-6c0-.862.342-1.689.952-2.298l-1.06-1.06A4.75 4.75 0 0012.5 5.25H14zm.952-2.298A3.25 3.25 0 0117.25 2V.5c-1.26 0-2.468.5-3.359 1.391l1.06 1.06zM17.25 2a3.25 3.25 0 012.298.952l1.06-1.06A4.75 4.75 0 0017.25.5V2zm2.298.952c.61.61.952 1.436.952 2.298H22c0-1.26-.5-2.468-1.391-3.359l-1.06 1.06z" fill="#C47900"/>
</svg>
