<svg width="299" height="80" viewBox="0 0 299 80" fill="none" xmlns="http://www.w3.org/2000/svg">
  <g clip-path="url(#a)" fill="#fff">
    <path d="M8.643 1.903c-.001-.039.006-.077.006-.115L7.957 3.07l.979 1.287 1.66.41.517-.113.45.297 3.35.667-.16 2.306.214 1.52.371 1.26 1.673.75 1.747-.47.095-.983-1.333-.837.34-2.128 1.787.304.166.55.827.129.337-.856.827-.62-.757-1.957.812-.881.376-1.738a53.516 53.516 0 00-2.17-1.29c-.757-.427-1.917-.735-2.651-.448-1.736.68-3.364.52-5.06.106-1.095-.267-2.566.678-2.509 1.544.024.347-.159.708-.247 1.062-.337-.345-.94-.68-.955-1.038zM3.476 11.578l.903.226.349.026.223-.191.6-3.052L6.577 5.43 5.26 3.536l-.482-.613c-.433.932-.857 1.869-1.223 2.828-.164.43-.074 1.012.037 1.491.342 1.484.744 2.92-.116 4.336zM30.801 7.682l.057.963 1.388-.793.617-1.077c-.05-.048-.099-.096-.148-.141a5.48 5.48 0 00-2.02-1.197l-.328 1.35.018.343.416.552zM.724 18.707c.342.267.564.924.177 1.478l1.345.392.05-.027.13-.412 1.053-1.943 1.203-1.036.64-1.27-.083-.858.017-.201-.065-.063-.451.36-2.77-1.386a43.88 43.88 0 00-1.383 2.234c-.496.86-1.086 1.781.137 2.732zM26.658 6.637l-.287 1.037.013.065.142.13 1.368.886-.04.066.27-.225 1.86.09-.04-.673-.419-.556-.039-.756.356-1.47a6.128 6.128 0 00-.94-.077c-.633-.004-1.246-.015-1.844-.15l-.4 1.633z"/>
    <path d="M22.66 4.141l-.594.645.462 1.196.008-.012.824.603 1.06.203-.346 1.758.647 1.006.438.406 1.11.19.929-.772-1.227-.8-.385-.348-.119-.572.344-1.237.415-1.693c-.251-.12-.5-.27-.746-.469a32.063 32.063 0 00-2.456-1.774l-.365 1.67zM21.617 76.725L19.82 75.02l-.84-.298-.725-1.608-.024-4.761.304-1.593-1.34-2.53.05-1.936-.62-2.24-.034-3.497.716-2.96-.977-2.806.429-2.98-.094-2.702.65-2.767.403-.104.13-1.783.118-.562-.253.09-.342-.997-2.216-4.306-.08.256-.227.495-.59.319-.757.211c.057.181.103.373.12.594.212 2.799.53 5.59.704 8.392.131 2.134-.158 4.33.217 6.409.514 2.85.358 5.56-.435 8.29-.072.247.007.56.078.825.187.7.421 1.388.613 2.088.208.761.218 1.64.615 2.273 1.105 1.764.998 3.565.493 5.443-.073.276-.229.59-.162.835.612 2.247 1.224 4.469 2.688 6.38 1.926 2.515 3.511 3.099 5.581 1.937l-2.82-2.467c.176-.1.309-.172.425-.235zM32.277 49.951l-2.484-2.273c-.817 1.296-.85 2.269-.88 3.465-.012.439-.046.839-.08 1.238-.045.511-.087.993-.078 1.48 0 .041.003.09.007.133.363.022.681.1.987.209 1.244.444 2.456.419 3.489-.46.331-.28.668-.546 1-.82l-1.96-2.972z"/>
    <path d="M51.512 17.376c-.49-.085-.959-.397-1.399-.669-.664-.41-1.24-1.079-1.95-1.276-1.12-.31-2.317-.348-3.485-.449-.897-.077-1.801-.074-2.796-.11-.085-.18-.182-.744-.51-1.02-1.338-1.123-3.375-.805-4.442.607-.828 1.097-1.512 1.229-2.611.469-.435-.3-.84-.647-1.484-1.15l2.056-2.824c-.455-1.053-.943-2.22-1.47-3.377l-.53.927-.855.515-1.107.607-2.51-.121-1.901 1.58-1.754-.3-.742-.708-.875-1.362.242-1.227-.377-.072-.45-.33-.864.648-.502 1.276-2.06-.32-.168-.559-.383-.065-.104.646 1.3.816-.209 2.161-2.634.71-2.322-1.042-.512-1.754-.231-1.65.112-1.609-2.827-.595-.216-.144-.357.078-2.15-.531-1.523-2L8.612 0C7.737.374 6.765.785 5.8 1.227a.7.7 0 00-.143.089l.07.004-.07 1.291.302.385L7.55 5.283 6.398 8.817l-.648 3.309-.733.625-.811-.067-1.273-.32c-.152.21-.297.424-.445.636l2.145 1.073.618-.492.57.56.124-.213 2.637 1.61.522.439 3.286.007-.112-.492.35-2.212-.702-.665.33-1.54 2.012-.528.219.869-1.49.391-.107.499.684.649-.403 2.504.152.675-.204 2.406.126.497-2.268.09-.851.765-.622 3.125 2.217 1.78 1.162-.785.32 1.516 1.632-.719 1.512.39 2.57-2.11.654 3.025 5.58 2.163.168 2.39 2.646.32.818 1.9-.2 4.254 2.78 1.421-.007.594 1.25.357-.313 1.477.962.798-.883 2.552-2.059 2.612 2.66 2.451 1.932 2.93c.242-.232.48-.477.7-.762.974-1.248 1.83-2.515 2.553-3.907a.766.766 0 01.252-.275c.917-.596.87-1.45.775-2.426-.069-.703-.052-1.656.347-2.123 1.478-1.73 3.407-2.968 5.633-3.195 1.301-.133 2.021-.85 2.45-1.699 1.42-2.816 2.403-5.785 1.946-9.062-.129-.93-.289-1.938.885-2.458.244-.109.355-.544.517-.835.31-.556.609-1.117.918-1.674.619-1.116 1.465-2.163 1.807-3.362.506-1.769-.42-2.873-2.176-3.179z"/>
    <path d="M13.035 35.16l.94-.262.2-.114.084-.18.63-2.047-.37-.696.145-.637.525-1.25-.616-1.004.359-1.184-1.316-1.464-1.045.46-.274-1.3-.619.419-3.14-2.52.786-3.965 1.308-1.174 1.49-.06-.332-1.303-3.003-.007-.738-.62-1.924-1.17.094.98-.839 1.665-1.274 1.097-.887 1.694-.188.65-.816.434-.395-.243-1.588-.437c-.365.75-.032 2.115.653 2.542a7.39 7.39 0 011.696 1.493c.602.713 1.14 1.484 1.685 2.247l.005.026.34.453.06.083h.002l1.438 1.916.093-.008c.322.404.61.773.722 1.19.433 1.61 1.659 2.217 2.954 2.79.563.248 1.172.387 1.742.622.548.226 1.047.49 1.413.884zM29.367 55.88c-.41-.315-.79-.67-1.131-1.055-.1-.114-.204-.24-.273-.41-.08-.199-.083-.394-.086-.537-.008-.535.037-1.063.08-1.574.033-.382.066-.764.077-1.147.034-1.304.078-2.515 1.1-4.082l-.026-.024 2.532-3.212.587-1.748-.199-.166-.508 1.604-2.417 1.78-3.741.3 1.283-4.525-2.792-1.724-1.237-.592-.843 1.306-1.491-.988-.848-.134-.258.675-.36.469-.106.489-.166 2.364-.503.13-.499 2.12.093 2.663-.408 2.837.992 2.852-.752 3.11.032 3.324.625 2.193-.049 1.836 1.38 2.603-.349 1.821.022 4.478.488 1.085.663.234 1.36 1.29c-.205-1.251.758-2.24 1.302-3.217.479-.858.567-1.279-.18-1.854-.915-.704-1.021-1.425-.28-2.442.722-.988 1.187-2.172 1.74-3.224-1.3-1.34-1.255-1.41.275-2.074.317-.137.61-.757.608-1.152-.003-1.123.563-1.722 1.537-1.733 1.145-.015 1.87-.658 2.651-1.332.806-.697.924-1.428.294-2.302l-.218-.315z"/>
    <path d="M27.677 37.68l.089-1.877-.502-.282-.947-.135-.04-.109-.68.152-1.055.129-.663.283-.395 2.353.781.376 3.41 2.101-1.118 3.942 2.232-.178 1.985-1.462.61-1.93.19-.895-1.102-.315.008-.72-2.803-1.433z"/>
    <path d="M24.496 31.47l-.179-2.559-5.5-2.13-.451-2.09-1.81 1.486-1.647-.425-.44.194 1.449 1.612-.388 1.284.645 1.054-.69 1.642-.04.188.357.67-.074.444-.196.625.18-.051.264.961 2.195 4.254.204.588.068-.088.406-1.179 1.753.278.918.608.782-1.212.36.173.435-2.594 1.282-.53 1.074-.128 1.382-.31.123.336.658.123.197.112.083-1.753-.532-1.237-2.868-.346zM81.234 41.38V40c1.7-1.788 2.598-4.19 2.598-6.693V8.07h-4.596c-2.349 0-4.647.92-6.196 2.707h-2.798v-5.16h32.627v5.16h-2.698c-1.6-1.788-3.998-2.707-6.296-2.707h-4.497v25.237c0 2.504.8 4.905 2.499 6.693v1.38H81.234zm24.686-17.882c0-10.473 8.494-18.545 18.937-18.545 10.542 0 18.986 8.072 18.986 18.545 0 10.525-8.444 18.546-18.986 18.546-10.443 0-18.937-8.021-18.937-18.546zm7.595 2.81c2.748 9.298 9.643 15.071 16.288 13.488 6.745-1.584 9.943-9.912 7.245-19.159-2.698-9.298-10.393-14.815-17.088-13.232-6.695 1.584-9.193 9.707-6.445 18.903zm44.372 15.071V40c1.698-1.788 2.598-4.19 2.598-6.693V8.07h-4.597c-2.348 0-4.647.92-6.195 2.707h-2.798v-5.16h32.626v5.16h-2.698c-1.599-1.788-3.997-2.707-6.295-2.707h-4.497v25.237c0 2.504.799 4.905 2.498 6.693v1.38h-10.642zm23.287 0V40l2.248-2.452c.25-.307.4-.562.6-1.022l11.841-30.909h5.396l11.892 30.807c.199.51.499.817.899 1.175L216.798 40v1.38h-10.642V40l.249-.153c1.25-.869 1.699-2.35 1.15-3.78l-2.299-5.978h-16.438l-2.498 6.437a3.223 3.223 0 00.849 3.474v1.38h-5.995zm8.444-13.334h14.889l-7.445-19.413-7.444 19.413zM219.7 41.38V40c1.648-1.788 2.548-4.24 2.548-6.693V13.74c0-2.452-.9-4.904-2.548-6.692v-1.43h10.642v1.43c-1.699 1.788-2.548 4.24-2.548 6.692v25.29h7.844c2.648 0 5.196-.818 7.295-2.402h1.599v4.751H219.7zm27.933 0V40c1.649-1.788 2.548-4.24 2.548-6.693V13.74c0-2.452-.899-4.904-2.548-6.692v-1.43h10.643v1.43c-1.699 1.788-2.549 4.24-2.549 6.692v25.29h7.845c2.648 0 5.196-.818 7.295-2.402h1.598v4.751h-24.832zm30.282 0V40a9.887 9.887 0 002.698-6.744v-8.48L271.42 9.858c-.2-.358-.5-.716-.849-.92l-2.798-1.89v-1.43h10.092v1.43l-.25.255c-.849 1.022-.899 2.452-.299 3.423l7.744 13.028 8.444-12.772c.749-1.175.55-2.912-.55-3.832V5.617H299V7.15l-1.499.97c-.25.205-.5.46-.699.716l-10.793 16.042v8.378c0 2.504.95 4.956 2.649 6.744v1.38h-10.743zM86.948 70.623c.076 0 .126.051.126.129v4.218H76.826c-.076 0-.127-.052-.127-.13 0-.078.05-.13.127-.13h.734c.328 0 .531-.258.531-.543V58.72c0-.284-.203-.543-.531-.543h-.734c-.076 0-.127-.052-.127-.13 0-.077.05-.129.127-.129h4.124c.076 0 .127.052.127.13 0 .077-.05.13-.127.13h-.733c-.33 0-.532.258-.532.543v15.446c0 .285.203.544.532.544h3.492c2.075 0 3.112-1.656 3.112-3.442v-.517c0-.078.05-.13.127-.13zm20.223 4.088c.076 0 .127.052.127.13 0 .077-.051.129-.127.129h-5.112c-.075 0-.126-.052-.126-.13 0-.078.051-.13.126-.13h.911c.507 0 .785-.387.608-.905l-1.62-4.476h-6.655l-1.67 4.476c-.177.466.101.906.607.906h.911c.076 0 .127.052.127.13 0 .077-.05.129-.127.129h-3.568c-.076 0-.126-.052-.126-.13 0-.078.05-.13.126-.13h.608c.658 0 .961-.336 1.164-.905l5.972-15.964h.253l5.794 15.99c.178.466.532.88 1.24.88h.557zm-11.767-5.64h6.478l-3.188-8.798-3.29 8.797zm28.777-11.153v4.477c0 .077-.051.129-.127.129-.076 0-.126-.052-.126-.13v-1.293c0-1.785-1.038-2.924-3.113-2.924h-1.493c-.329 0-.531.259-.531.544v15.446c0 .285.202.544.531.544h.734c.076 0 .127.052.127.13 0 .077-.051.129-.127.129h-4.125c-.075 0-.126-.052-.126-.13 0-.078.051-.13.126-.13h.734c.329 0 .532-.258.532-.543V58.72c0-.284-.203-.543-.532-.543h-.987c-2.328 0-3.618.88-3.618 3.441v.777c0 .077-.051.129-.127.129-.076 0-.126-.052-.126-.13v-4.476h12.374zm9.494 16.793c.076 0 .127.052.127.13 0 .077-.051.129-.127.129h-4.125c-.076 0-.126-.052-.126-.13 0-.078.05-.13.126-.13h.734c.329 0 .532-.258.532-.543V58.72c0-.284-.203-.543-.532-.543h-.734c-.076 0-.126-.052-.126-.13 0-.077.05-.129.126-.129h4.125c.076 0 .127.052.127.13 0 .077-.051.13-.127.13h-.734c-.329 0-.531.258-.531.543v15.446c0 .285.202.544.531.544h.734zm19.363-16.793c.076 0 .127.052.127.13 0 .077-.051.13-.127.13h-.734c-.329 0-.531.258-.531.543v16.248h-.709l-10.02-15.472v14.67c0 .285.202.544.531.544h.734c.076 0 .126.052.126.13 0 .077-.05.129-.126.129h-2.784c-.075 0-.126-.052-.126-.13 0-.078.051-.13.126-.13h.734c.329 0 .532-.258.532-.543V58.72c0-.284-.203-.543-.532-.543h-.734c-.075 0-.126-.052-.126-.13 0-.077.051-.129.126-.129h2.43l9.565 14.775V58.72c0-.285-.203-.544-.532-.544h-.733c-.076 0-.127-.052-.127-.13 0-.077.051-.129.127-.129h2.783zm30.401 16.793c.076 0 .127.052.127.13 0 .077-.051.129-.127.129h-5.112c-.075 0-.126-.052-.126-.13 0-.078.051-.13.126-.13h.911c.507 0 .785-.387.608-.905l-1.62-4.476h-6.655l-1.67 4.476c-.177.466.101.906.607.906h.911c.076 0 .127.052.127.13 0 .077-.051.129-.127.129h-3.568c-.076 0-.126-.052-.126-.13 0-.078.05-.13.126-.13h.608c.658 0 .961-.336 1.164-.905l5.972-15.964h.253l5.794 15.99c.178.466.532.88 1.24.88h.557zm-11.767-5.64h6.478l-3.188-8.798-3.29 8.797zm25.234 5.976h-.253l-6.579-16.12v15.24c0 .285.202.544.531.544h.734c.076 0 .127.052.127.13 0 .077-.051.129-.127.129h-2.783c-.076 0-.127-.052-.127-.13 0-.078.051-.13.127-.13h.733c.329 0 .532-.258.532-.543V58.72c0-.284-.203-.543-.532-.543h-.733c-.076 0-.127-.052-.127-.13 0-.077.051-.129.127-.129h2.834l6.073 14.904 5.668-14.904h2.834c.076 0 .127.052.127.13 0 .077-.051.13-.127.13h-.734c-.329 0-.531.258-.531.543v15.446c0 .285.202.544.531.544h.734c.076 0 .127.052.127.13 0 .077-.051.129-.127.129h-4.125c-.075 0-.126-.052-.126-.13 0-.078.051-.13.126-.13h.734c.329 0 .532-.258.532-.543V58.72l-6.2 16.327zm25.613-4.683c.076 0 .127.052.127.13v4.475h-10.83c-.076 0-.127-.051-.127-.129 0-.078.051-.13.127-.13h.733c.329 0 .532-.258.532-.543V58.72c0-.284-.203-.543-.532-.543h-.733c-.076 0-.127-.052-.127-.13 0-.077.051-.129.127-.129h10.703v4.477c0 .077-.05.129-.126.129s-.127-.052-.127-.13v-1.293c0-1.785-1.037-2.924-3.112-2.924h-3.948c-.329 0-.531.259-.531.544v7.218h2.455c2.125 0 2.176-.75 2.176-1.785v-.284c0-.078.05-.13.126-.13s.127.052.127.13v4.398c0 .078-.051.13-.127.13-.076 0-.126-.052-.126-.13v-.31c0-1.01-.051-1.76-2.176-1.76h-2.455v7.97c0 .284.202.543.531.543h4.074c2.075 0 3.113-1.139 3.113-2.924v-1.294c0-.077.05-.13.126-.13zm19.414 3.57c.076 0 .127.052.127.13 0 .207-.835 1.035-1.949 1.035-4.428 0 .278-8.513-6.908-8.513h-.86v7.581c0 .285.202.544.531.544h.734c.076 0 .126.052.126.13 0 .077-.05.129-.126.129h-4.125c-.076 0-.126-.052-.126-.13 0-.078.05-.13.126-.13h.734c.329 0 .531-.258.531-.543V58.72c0-.284-.202-.543-.531-.543h-.734c-.076 0-.126-.052-.126-.13 0-.077.05-.129.126-.129h4.808c3.087 0 5.39 1.268 5.39 4.01 0 2.485-1.898 4.167-5.086 4.529 6.781.854 3.492 8.15 6.048 8.15.835 0 1.088-.672 1.29-.672zm-9.59-7.606h1.29c3.29 0 4.403-2.355 4.403-4.4 0-2.431-1.113-3.75-4.023-3.75h-1.139c-.329 0-.531.258-.531.543v7.607zm18.705 8.383c.076 0 .126.052.126.13 0 .077-.05.129-.126.129h-4.125c-.076 0-.126-.052-.126-.13 0-.078.05-.13.126-.13h.734c.329 0 .531-.258.531-.543V58.72c0-.284-.202-.543-.531-.543h-.734c-.076 0-.126-.052-.126-.13 0-.077.05-.129.126-.129h4.125c.076 0 .126.052.126.13 0 .077-.05.13-.126.13h-.734c-.329 0-.531.258-.531.543v15.446c0 .285.202.544.531.544h.734zm18.654-13.998c0-1.061-1.619-2.613-4.656-2.613-3.492 0-5.972 2.51-5.972 8.357 0 5.045 1.974 8.228 5.972 8.228 2.986 0 4.935-2.122 5.365-3.286.025-.078.076-.104.126-.104.102 0 .152.078.127.181-.203.647-.835 1.553-1.797 2.277a6.565 6.565 0 01-3.973 1.346c-4.782 0-7.464-3.648-7.464-8.642 0-5.848 3.34-8.668 7.363-8.668 3.771 0 5.922 2.096 5.922 4.114 0 1.113-.557 1.578-1.089 1.578a.982.982 0 01-.986-1.009c0-.88 1.062-1.035 1.062-1.76zm22.172 13.998c.076 0 .127.052.127.13 0 .077-.051.129-.127.129h-5.111c-.076 0-.127-.052-.127-.13 0-.078.051-.13.127-.13h.911c.506 0 .784-.387.607-.905l-1.62-4.476h-6.655l-1.67 4.476c-.177.466.101.906.608.906h.911c.075 0 .126.052.126.13 0 .077-.051.129-.126.129h-3.568c-.076 0-.127-.052-.127-.13 0-.078.051-.13.127-.13h.607c.658 0 .961-.336 1.164-.905l5.972-15.964h.253l5.795 15.99c.177.466.531.88 1.24.88h.556zm-11.766-5.64h6.478l-3.189-8.798-3.289 8.797z"/>
  </g>
  <defs>
    <clipPath id="a">
      <path fill="#fff" d="M0 0h299v80H0z"/>
    </clipPath>
  </defs>
</svg>
