<svg width="182" height="48" viewBox="0 0 182 48" fill="none" xmlns="http://www.w3.org/2000/svg">
  <g clip-path="url(#a)" fill="#070707">
    <path d="M5.262 1.142c-.001-.023.003-.046.003-.07l-.421.77.596.772 1.01.246.315-.068.273.179 2.04.4-.097 1.383.13.913.226.755 1.018.45 1.063-.282.058-.59-.811-.501.207-1.278 1.087.183.101.33.504.077.205-.513.503-.372-.46-1.175.494-.528.229-1.043a32.784 32.784 0 00-1.32-.774C11.752.15 11.046-.035 10.6.137 9.544.545 8.553.45 7.52.201c-.666-.16-1.562.407-1.527.926.014.208-.097.425-.15.637-.205-.206-.572-.407-.581-.622zM2.116 6.947l.55.136.212.015.136-.115.365-1.83.625-1.894-.802-1.137-.293-.368a26.22 26.22 0 00-.745 1.697c-.1.258-.045.607.023.895.208.89.453 1.752-.071 2.6zM18.748 4.609l.035.577.845-.476.375-.646a3.347 3.347 0 00-1.32-.802l-.199.809.011.207.253.33zM.44 11.224c.209.16.344.554.109.886l.818.236.03-.016.08-.248.64-1.165.733-.622.39-.762-.05-.515.01-.12-.04-.038-.275.216-1.686-.832c-.294.439-.575.885-.842 1.34-.302.517-.66 1.07.083 1.64zM16.226 3.982l-.175.622.008.04.086.077.833.531-.025.04.165-.135 1.132.054-.025-.404-.254-.333-.024-.454.217-.881a3.781 3.781 0 00-.572-.047c-.386-.002-.759-.01-1.123-.09l-.243.98z"/>
    <path d="M13.794 2.485l-.36.386.28.718.005-.007.502.362.645.122-.21 1.054.393.604.267.244.676.114.565-.463-.746-.48-.235-.21-.072-.343.209-.742.252-1.016a2.333 2.333 0 01-.453-.28c-.479-.38-.98-.731-1.495-1.066l-.223 1.003zM13.16 46.034l-1.095-1.023-.512-.179-.44-.965-.015-2.856.185-.956-.816-1.518.031-1.162-.378-1.343-.02-2.099.436-1.776-.595-1.684.26-1.787-.056-1.622.395-1.66.246-.063.079-1.07.071-.337-.153.055-.208-.599-1.35-2.583-.048.154-.138.297-.36.19-.46.127c.035.109.063.224.073.357.129 1.68.322 3.354.428 5.035.08 1.28-.096 2.598.133 3.845.312 1.71.217 3.336-.266 4.975-.043.148.005.335.048.494.114.421.257.833.373 1.253.127.457.133.985.374 1.364.673 1.058.608 2.14.3 3.266-.044.165-.139.354-.098.5.373 1.35.745 2.682 1.636 3.829 1.173 1.509 2.138 1.86 3.397 1.162l-1.717-1.48c.108-.06.189-.104.26-.141zM19.649 29.971l-1.513-1.364c-.497.778-.517 1.362-.536 2.08-.007.263-.027.503-.048.743-.027.306-.053.595-.047.888 0 .024.001.053.004.079.22.013.415.06.6.126.758.266 1.496.25 2.124-.276.202-.169.407-.328.61-.493l-1.194-1.783z"/>
    <path d="M31.356 10.426c-.298-.052-.584-.238-.851-.402-.404-.246-.756-.647-1.188-.765-.681-.187-1.41-.209-2.12-.27-.547-.046-1.097-.044-1.703-.066-.052-.108-.11-.446-.31-.612-.814-.673-2.055-.483-2.704.365-.504.658-.92.737-1.59.28-.264-.18-.51-.387-.902-.689l1.25-1.695c-.276-.631-.573-1.332-.893-2.026l-.324.556-.52.31-.673.364-1.529-.073-1.157.948-1.067-.18-.452-.425-.532-.817.147-.736-.23-.043-.274-.198-.525.388-.306.766-1.254-.192-.102-.335-.233-.04-.063.388.79.49-.127 1.297-1.603.425-1.413-.625-.312-1.052-.14-.99.067-.965-1.72-.358-.132-.086-.217.047-1.31-.319-.926-1.2L5.243 0C4.71.225 4.12.471 3.531.736a.428.428 0 00-.086.054l.042.002-.042.775.183.23.969 1.373-.702 2.12-.394 1.986-.446.374-.494-.04-.775-.191c-.092.125-.18.254-.27.38l1.305.645.376-.295.347.335.075-.127 1.606.966.318.263 2 .004-.068-.295.213-1.327-.428-.4.201-.923 1.225-.317.133.522-.907.234-.065.3.416.389-.245 1.502.093.405-.124 1.444.076.298-1.38.054-.519.459-.378 1.875 1.35 1.068.707-.47.195.909.993-.432.92.235 1.565-1.266.398 1.815 3.397 1.297.102 1.435 1.61.191.498 1.14-.122 2.552 1.693.853-.005.357.761.213-.19.887.585.48-.537 1.53-1.253 1.567 1.619 1.471 1.175 1.757c.148-.139.293-.286.427-.456a15.183 15.183 0 001.554-2.345.462.462 0 01.153-.165c.558-.357.53-.87.471-1.455-.041-.422-.03-.994.212-1.274.9-1.038 2.074-1.78 3.429-1.917.792-.08 1.23-.51 1.49-1.02.865-1.689 1.464-3.47 1.186-5.436-.079-.558-.176-1.164.538-1.476.149-.065.216-.326.315-.5.188-.334.37-.67.559-1.005.376-.67.891-1.298 1.1-2.017.308-1.061-.256-1.724-1.325-1.907z"/>
    <path d="M7.935 21.096l.572-.157.122-.068.051-.108.384-1.229-.226-.417.089-.383.32-.75-.375-.602.218-.71-.801-.878-.636.276-.167-.78-.377.25-1.912-1.511.48-2.379.795-.705.907-.036-.201-.782-1.829-.004-.449-.371-1.171-.703.058.589-.511.998-.776.658-.54 1.017-.114.39-.497.26-.24-.146-.967-.261c-.222.449-.02 1.268.398 1.525.383.236.737.551 1.032.895.366.428.693.89 1.026 1.349l.003.015.206.272.037.05h.001l.875 1.15.057-.005c.196.242.371.464.44.714.263.966 1.01 1.33 1.797 1.673.343.15.714.233 1.061.374.333.136.637.294.86.53zM17.875 33.527a4.944 4.944 0 01-.69-.633.849.849 0 01-.165-.246c-.049-.119-.05-.236-.053-.322-.005-.32.023-.638.05-.944.02-.23.04-.459.046-.689.02-.782.047-1.508.67-2.449l-.016-.014 1.54-1.928.358-1.049-.121-.099-.309.962-1.472 1.069-2.277.18.782-2.715-1.7-1.035-.753-.355-.513.783-.908-.592-.516-.08-.157.405-.219.28-.064.294-.102 1.419-.306.078-.303 1.272.056 1.597-.249 1.703.605 1.71-.458 1.867.02 1.994.38 1.316-.03 1.102.84 1.561-.212 1.093.013 2.687.297.65.403.141.828.774c-.124-.75.461-1.344.793-1.93.291-.515.345-.767-.11-1.112-.557-.422-.621-.855-.17-1.465.44-.593.722-1.304 1.06-1.935-.792-.804-.765-.846.166-1.244.193-.083.371-.454.37-.692-.002-.673.343-1.033.936-1.04.697-.008 1.138-.394 1.614-.799.49-.418.562-.856.179-1.38l-.133-.19z"/>
    <path d="M16.85 22.608l.053-1.126-.306-.17-.576-.081-.024-.065-.415.091-.641.077-.404.17-.24 1.412.475.226 2.076 1.26-.68 2.365 1.358-.106 1.208-.878.371-1.157.116-.538-.671-.189.005-.432-1.706-.86z"/>
    <path d="M14.912 18.882l-.109-1.536-3.348-1.278-.274-1.254-1.101.892-1.004-.255-.267.116.882.968-.236.77.392.632-.42.985-.024.113.217.402-.045.267-.12.375.11-.031.161.577 1.336 2.552.125.353.04-.053.248-.707 1.067.166.559.365.476-.727.218.104.266-1.556.78-.318.654-.077.841-.186.075.201.4.074.12.067.05-1.051-.323-.743-1.746-.207zM49.449 24.828v-.827c1.034-1.073 1.581-2.514 1.581-4.016V4.843h-2.798c-1.43 0-2.828.551-3.771 1.624h-1.703V3.371h19.86v3.096h-1.643c-.973-1.073-2.433-1.624-3.832-1.624h-2.737v15.142c0 1.502.487 2.943 1.52 4.016v.827H49.45zM64.475 14.1c0-6.284 5.17-11.127 11.526-11.127 6.417 0 11.557 4.843 11.557 11.127 0 6.314-5.14 11.127-11.557 11.127-6.356 0-11.526-4.813-11.526-11.127zm4.623 1.686c1.672 5.579 5.87 9.042 9.914 8.092 4.106-.95 6.052-5.947 4.41-11.495-1.642-5.579-6.326-8.89-10.401-7.939-4.075.95-5.596 5.824-3.923 11.342zm27.009 9.042v-.827c1.034-1.073 1.581-2.514 1.581-4.016V4.843H94.89c-1.43 0-2.828.551-3.771 1.624h-1.703V3.371h19.859v3.096h-1.642c-.973-1.073-2.433-1.624-3.832-1.624h-2.737v15.142c0 1.502.487 2.943 1.521 4.016v.827h-6.478zm14.174 0v-.827l1.369-1.472c.152-.183.243-.337.365-.613l7.208-18.545h3.284l7.239 18.484c.121.307.304.49.547.705l1.673 1.44v.828h-6.478v-.827l.152-.092c.76-.521 1.034-1.41.699-2.268l-1.399-3.587h-10.006l-1.52 3.862a1.915 1.915 0 00.517 2.085v.827h-3.65zm5.14-8h9.063L119.953 5.18l-4.532 11.648zm18.311 8v-.827c1.004-1.073 1.551-2.545 1.551-4.016V8.245c0-1.471-.547-2.943-1.551-4.016v-.858h6.478v.858c-1.034 1.073-1.551 2.545-1.551 4.016v15.173h4.775c1.612 0 3.163-.49 4.44-1.44h.973v2.85h-15.115zm17.003 0v-.827c1.004-1.073 1.551-2.545 1.551-4.016V8.245c0-1.471-.547-2.943-1.551-4.016v-.858h6.478v.858c-1.034 1.073-1.551 2.545-1.551 4.016v15.173h4.775c1.612 0 3.163-.49 4.44-1.44h.973v2.85h-15.115zm18.432 0v-.827a5.884 5.884 0 001.643-4.047v-5.088l-5.596-8.95a1.498 1.498 0 00-.517-.552l-1.703-1.135v-.858h6.143v.858l-.152.154c-.517.613-.547 1.471-.182 2.053l4.714 7.817 5.139-7.663c.457-.705.335-1.747-.334-2.3v-.919h3.68v.92l-.913.582a2.797 2.797 0 00-.425.43l-6.57 9.624v5.027a5.86 5.86 0 001.612 4.047v.827h-6.539zM52.926 42.374c.046 0 .077.031.077.078v2.53h-6.239c-.046 0-.077-.031-.077-.078 0-.046.031-.077.078-.077h.446c.2 0 .324-.155.324-.326v-9.268a.317.317 0 00-.324-.326h-.447c-.046 0-.077-.031-.077-.078s.031-.078.078-.078h2.51c.046 0 .077.032.077.078 0 .047-.03.078-.077.078h-.447c-.2 0-.323.155-.323.326V44.5c0 .17.123.326.323.326h2.126c1.263 0 1.895-.994 1.895-2.065v-.31c0-.047.03-.078.077-.078zm12.31 2.453c.046 0 .076.03.076.078 0 .046-.03.077-.076.077h-3.112c-.046 0-.077-.031-.077-.078 0-.046.031-.077.077-.077h.555c.308 0 .477-.233.37-.544l-.986-2.685h-4.051l-1.017 2.685c-.108.28.062.544.37.544h.554c.046 0 .077.03.077.078 0 .046-.03.077-.077.077h-2.172c-.046 0-.077-.031-.077-.078 0-.046.031-.077.077-.077h.37c.4 0 .585-.202.709-.544l3.635-9.578h.154l3.527 9.594c.108.28.323.528.755.528h.338zm-7.163-3.384h3.943l-1.94-5.279-2.003 5.279zm17.516-6.691v2.685c0 .047-.03.078-.077.078-.046 0-.077-.031-.077-.078v-.776c0-1.071-.631-1.754-1.894-1.754h-.909c-.2 0-.324.155-.324.326V44.5c0 .17.124.326.324.326h.447c.046 0 .077.03.077.078 0 .046-.031.077-.077.077h-2.511c-.046 0-.077-.031-.077-.078 0-.046.03-.077.077-.077h.447c.2 0 .323-.155.323-.326v-9.268a.317.317 0 00-.323-.326h-.601c-1.417 0-2.203.528-2.203 2.065v.465c0 .047-.03.078-.077.078-.046 0-.077-.031-.077-.078v-2.685h7.532zm5.78 10.075c.046 0 .076.03.076.078 0 .046-.03.077-.077.077h-2.51c-.046 0-.077-.031-.077-.078 0-.046.03-.077.077-.077h.446c.2 0 .324-.155.324-.326v-9.268a.317.317 0 00-.324-.326h-.446c-.046 0-.077-.031-.077-.078s.03-.078.077-.078h2.51c.047 0 .077.032.077.078 0 .047-.03.078-.077.078h-.446c-.2 0-.324.155-.324.326V44.5c0 .17.124.326.324.326h.446zm11.786-10.075c.046 0 .077.03.077.077s-.031.078-.077.078h-.447c-.2 0-.323.155-.323.326v9.75h-.432l-6.1-9.285v8.803c0 .17.124.326.324.326h.447c.046 0 .077.03.077.078 0 .046-.03.077-.077.077H84.93c-.047 0-.078-.031-.078-.078 0-.046.031-.077.078-.077h.446c.2 0 .324-.155.324-.326v-9.268a.317.317 0 00-.324-.326h-.447c-.046 0-.076-.031-.076-.078s.03-.078.077-.078h1.478l5.823 8.865v-8.383a.317.317 0 00-.324-.326h-.447c-.046 0-.077-.031-.077-.078s.031-.078.077-.078h1.695zm18.505 10.075c.046 0 .077.03.077.078 0 .046-.031.077-.077.077h-3.112c-.046 0-.077-.031-.077-.078 0-.046.031-.077.077-.077h.555c.308 0 .477-.233.369-.544l-.985-2.685h-4.051l-1.017 2.685c-.108.28.062.544.37.544h.554c.046 0 .077.03.077.078 0 .046-.031.077-.077.077h-2.172c-.046 0-.077-.031-.077-.078 0-.046.031-.077.077-.077h.37c.401 0 .585-.202.709-.544l3.635-9.578h.154l3.527 9.594c.108.28.323.528.755.528h.339zm-7.163-3.384h3.943l-1.94-5.279-2.003 5.279zm15.36 3.586h-.154l-4.005-9.672V44.5c0 .17.123.326.324.326h.446c.046 0 .077.03.077.078 0 .046-.031.077-.077.077h-1.694c-.046 0-.077-.031-.077-.078 0-.046.031-.077.077-.077h.447c.2 0 .323-.155.323-.326v-9.268a.317.317 0 00-.323-.326h-.447c-.046 0-.077-.031-.077-.078s.031-.078.077-.078h1.725l3.697 8.943 3.45-8.943h1.725c.046 0 .077.032.077.078 0 .047-.031.078-.077.078h-.447c-.2 0-.323.155-.323.326V44.5c0 .17.123.326.323.326h.447c.046 0 .077.03.077.078 0 .046-.031.077-.077.077h-2.511c-.046 0-.077-.031-.077-.078 0-.046.031-.077.077-.077h.447c.2 0 .324-.155.324-.326v-9.268l-3.774 9.796zm15.591-2.81c.046 0 .077.03.077.077v2.686h-6.593c-.046 0-.077-.031-.077-.078 0-.046.031-.077.077-.077h.447c.2 0 .323-.155.323-.326v-9.268a.317.317 0 00-.323-.326h-.447c-.046 0-.077-.031-.077-.078s.031-.078.077-.078h6.516v2.686c0 .047-.031.078-.077.078-.047 0-.077-.031-.077-.078v-.776c0-1.071-.632-1.754-1.895-1.754h-2.403c-.2 0-.323.155-.323.326v4.331h1.494c1.294 0 1.324-.45 1.324-1.071v-.17c0-.047.031-.078.077-.078.047 0 .077.03.077.077v2.64c0 .046-.03.077-.077.077-.046 0-.077-.031-.077-.078v-.186c0-.605-.03-1.056-1.324-1.056h-1.494v4.782c0 .17.123.326.323.326h2.48c1.263 0 1.895-.683 1.895-1.754v-.777c0-.046.03-.077.077-.077zm11.817 2.142c.046 0 .077.031.077.078 0 .124-.509.62-1.186.62-2.696 0 .169-5.107-4.205-5.107h-.524v4.549c0 .17.123.326.323.326h.447c.046 0 .077.03.077.078 0 .046-.031.077-.077.077h-2.511c-.046 0-.077-.031-.077-.078 0-.046.031-.077.077-.077h.447c.2 0 .324-.155.324-.326v-9.268a.317.317 0 00-.324-.326h-.447c-.046 0-.077-.031-.077-.078s.031-.078.077-.078h2.927c1.879 0 3.281.761 3.281 2.407 0 1.49-1.155 2.5-3.096 2.716 4.128.513 2.125 4.89 3.681 4.89.508 0 .662-.403.786-.403zm-5.838-4.564h.786c2.002 0 2.68-1.413 2.68-2.64 0-1.459-.678-2.25-2.449-2.25h-.694c-.2 0-.323.155-.323.326v4.564zm11.386 5.03c.046 0 .077.03.077.078 0 .046-.031.077-.077.077h-2.511c-.046 0-.077-.031-.077-.078 0-.046.031-.077.077-.077h.447c.2 0 .323-.155.323-.326v-9.268a.317.317 0 00-.323-.326h-.447c-.046 0-.077-.031-.077-.078s.031-.078.077-.078h2.511c.046 0 .077.032.077.078 0 .047-.031.078-.077.078h-.447c-.2 0-.323.155-.323.326V44.5c0 .17.123.326.323.326h.447zm11.355-8.399c0-.636-.986-1.568-2.834-1.568-2.126 0-3.636 1.506-3.636 5.014 0 3.028 1.202 4.937 3.636 4.937 1.817 0 3.003-1.273 3.265-1.971.015-.047.046-.062.077-.062.062 0 .092.046.077.108-.123.388-.508.932-1.094 1.366a4.03 4.03 0 01-2.418.808c-2.911 0-4.544-2.19-4.544-5.186 0-3.508 2.033-5.2 4.482-5.2 2.296 0 3.605 1.257 3.605 2.468 0 .668-.339.947-.663.947a.593.593 0 01-.6-.605c0-.528.647-.621.647-1.056zm13.496 8.399c.046 0 .077.03.077.078 0 .046-.031.077-.077.077h-3.112c-.046 0-.077-.031-.077-.078 0-.046.031-.077.077-.077h.555c.308 0 .477-.233.369-.544l-.985-2.685h-4.051l-1.017 2.685c-.108.28.062.544.37.544h.554c.046 0 .077.03.077.078 0 .046-.031.077-.077.077h-2.172c-.046 0-.077-.031-.077-.078 0-.046.031-.077.077-.077h.37c.401 0 .585-.202.709-.544l3.635-9.578h.154l3.527 9.594c.108.28.323.528.755.528h.339zm-7.163-3.384h3.943l-1.94-5.279-2.003 5.279z"/>
  </g>
  <defs>
    <clipPath id="a">
      <path fill="#fff" d="M0 0h182v48H0z"/>
    </clipPath>
  </defs>
</svg>
