<svg width="26" height="20" viewBox="0 0 26 20" fill="none" xmlns="http://www.w3.org/2000/svg">
<path d="M19.8545 0C21.6404 0 23.1111 0.63745 24.2667 1.91235C25.4222 3.18725 26 4.834 26 6.85259C26 10.4648 24.9758 13.4661 22.9273 15.8566C20.9313 18.247 18.1737 19.6282 14.6545 20V18.1673C16.5455 17.7424 18.2263 16.7862 19.697 15.2988C21.1677 13.7583 21.9556 11.9522 22.0606 9.88048C20.695 10.3054 19.4343 10.3586 18.2788 10.0398C17.1758 9.72111 16.2828 9.13679 15.6 8.28685C14.9697 7.3838 14.6545 6.40106 14.6545 5.33865C14.6545 3.79814 15.1535 2.52324 16.1515 1.51394C17.1495 0.504648 18.3838 0 19.8545 0ZM5.2 0C6.98586 0 8.45657 0.63745 9.61212 1.91235C10.7677 3.18725 11.3455 4.834 11.3455 6.85259C11.3455 10.4648 10.3212 13.4661 8.27273 15.8566C6.27677 18.247 3.51919 19.6282 0 20V18.1673C1.89091 17.7424 3.57172 16.7862 5.04242 15.2988C6.51313 13.7583 7.30101 11.9522 7.40606 9.88048C6.0404 10.3054 4.7798 10.3586 3.62424 10.0398C2.52121 9.72111 1.62828 9.13679 0.945455 8.28685C0.315152 7.3838 0 6.40106 0 5.33865C0 3.79814 0.49899 2.52324 1.49697 1.51394C2.49495 0.504648 3.72929 0 5.2 0Z" fill="#144D55"/>
</svg>
