<svg width="23" height="24" viewBox="0 0 23 24" fill="none" xmlns="http://www.w3.org/2000/svg">
<path d="M4.67228 4.56445L6.21128 5.82945L7.78228 7.50645L7.39528 10.1215L4.92028 11.3745L3.61328 12.4895L4.24928 13.5745L5.49728 14.9115L6.17128 17.2715L4.29728 18.8435L3.95428 20.3025" stroke="#C47900" stroke-width="1.5" stroke-miterlimit="10"/>
<path d="M9.64061 23.126L9.47461 22.067L11.4296 19.955L12.3966 17.3L15.4926 16.125L18.4926 16.724L20.1456 18.326" stroke="#C47900" stroke-width="1.5" stroke-miterlimit="10"/>
<path d="M21.6433 11.2499C21.9646 13.491 21.552 15.776 20.4672 17.7632C19.3824 19.7504 17.6837 21.3333 15.6249 22.2752C13.5661 23.2171 11.2578 23.4676 9.0449 22.9891C6.832 22.5106 4.83335 21.3289 3.34762 19.6206C1.86189 17.9122 0.968857 15.7689 0.801976 13.5111C0.635095 11.2532 1.20333 9.00193 2.42175 7.09372C3.64018 5.1855 5.44338 3.72279 7.56188 2.92417C9.68039 2.12554 12.0004 2.0339 14.1753 2.66292" stroke="#C47900" stroke-width="1.5" stroke-miterlimit="10"/>
<path d="M21.25 5.25C21.25 7.719 17.25 11.25 17.25 11.25C17.25 11.25 13.25 7.719 13.25 5.25C13.25 4.18913 13.6714 3.17172 14.4216 2.42157C15.1717 1.67143 16.1891 1.25 17.25 1.25C18.3109 1.25 19.3283 1.67143 20.0784 2.42157C20.8286 3.17172 21.25 4.18913 21.25 5.25Z" fill="#C47900"/>
<path d="M21.25 5.25H20.5H21.25ZM17.25 11.25L16.7537 11.8123L17.25 12.2504L17.7463 11.8123L17.25 11.25ZM17.25 1.25V0.5V1.25ZM20.5 5.25C20.5 5.68171 20.3187 6.23301 19.9686 6.86621C19.6256 7.48669 19.1584 8.11848 18.6755 8.69369C18.1949 9.26628 17.7122 9.76713 17.3485 10.1255C17.1672 10.3043 17.0165 10.4466 16.912 10.5434C16.8598 10.5918 16.8192 10.6287 16.7922 10.6532C16.7786 10.6654 16.7685 10.6745 16.762 10.6803C16.7588 10.6832 16.7564 10.6853 16.755 10.6865C16.7543 10.6872 16.7538 10.6876 16.7536 10.6878C16.7535 10.6879 16.7535 10.6879 16.7535 10.6879C16.7535 10.6879 16.7535 10.6879 16.7535 10.6879C16.7536 10.6878 16.7537 10.6877 17.25 11.25C17.7463 11.8123 17.7465 11.8122 17.7466 11.8121C17.7466 11.812 17.7468 11.8119 17.7469 11.8118C17.7472 11.8115 17.7475 11.8113 17.7478 11.8109C17.7486 11.8103 17.7496 11.8094 17.7508 11.8083C17.7532 11.8062 17.7566 11.8031 17.7609 11.7993C17.7696 11.7916 17.7819 11.7805 17.7977 11.7663C17.8292 11.7378 17.8745 11.6965 17.9317 11.6435C18.046 11.5376 18.2078 11.3847 18.4015 11.1939C18.7878 10.8131 19.3051 10.2768 19.8245 9.65806C20.3416 9.04189 20.8744 8.328 21.2814 7.59201C21.6813 6.86874 22 6.05279 22 5.25H20.5ZM17.25 11.25C17.7463 10.6877 17.7464 10.6878 17.7465 10.6879C17.7465 10.6879 17.7465 10.6879 17.7465 10.6879C17.7465 10.6879 17.7465 10.6879 17.7464 10.6878C17.7462 10.6876 17.7457 10.6872 17.745 10.6865C17.7436 10.6853 17.7412 10.6832 17.738 10.6803C17.7315 10.6745 17.7214 10.6654 17.7078 10.6532C17.6808 10.6287 17.6402 10.5918 17.588 10.5434C17.4835 10.4466 17.3328 10.3043 17.1515 10.1255C16.7878 9.76713 16.3051 9.26628 15.8245 8.69369C15.3416 8.11848 14.8744 7.48669 14.5314 6.86621C14.1813 6.23301 14 5.68171 14 5.25H12.5C12.5 6.05279 12.8187 6.86874 13.2186 7.59201C13.6256 8.328 14.1584 9.04189 14.6755 9.65806C15.1949 10.2768 15.7122 10.8131 16.0985 11.1939C16.2922 11.3847 16.454 11.5376 16.5683 11.6435C16.6255 11.6965 16.6708 11.7378 16.7023 11.7663C16.7181 11.7805 16.7304 11.7916 16.7391 11.7993C16.7434 11.8031 16.7468 11.8062 16.7492 11.8083C16.7504 11.8094 16.7514 11.8103 16.7522 11.8109C16.7525 11.8113 16.7528 11.8115 16.7531 11.8118C16.7532 11.8119 16.7534 11.812 16.7534 11.8121C16.7535 11.8122 16.7537 11.8123 17.25 11.25ZM14 5.25C14 4.38805 14.3424 3.5614 14.9519 2.9519L13.8912 1.89124C13.0004 2.78204 12.5 3.99022 12.5 5.25H14ZM14.9519 2.9519C15.5614 2.34241 16.388 2 17.25 2V0.5C15.9902 0.5 14.782 1.00045 13.8912 1.89124L14.9519 2.9519ZM17.25 2C18.112 2 18.9386 2.34241 19.5481 2.9519L20.6088 1.89124C19.718 1.00045 18.5098 0.5 17.25 0.5V2ZM19.5481 2.9519C20.1576 3.5614 20.5 4.38805 20.5 5.25H22C22 3.99022 21.4996 2.78204 20.6088 1.89124L19.5481 2.9519Z" fill="#C47900"/>
</svg>
