<svg width="24" height="24" viewBox="0 0 24 24" fill="none" xmlns="http://www.w3.org/2000/svg">
<path d="M12.25 23.25C18.3251 23.25 23.25 18.3251 23.25 12.25C23.25 6.17487 18.3251 1.25 12.25 1.25C6.17487 1.25 1.25 6.17487 1.25 12.25C1.25 18.3251 6.17487 23.25 12.25 23.25Z" stroke="#C47900" stroke-width="1.5" stroke-miterlimit="10" stroke-linecap="square"/>
<path d="M12.25 19.25C13.2603 19.177 14.2392 18.8675 15.1078 18.3463C15.9764 17.8252 16.7102 17.1071 17.25 16.25" stroke="#C47900" stroke-width="1.5" stroke-miterlimit="10" stroke-linecap="square"/>
<path fill-rule="evenodd" clip-rule="evenodd" d="M7.62665 7.25012C7.04518 7.23587 6.47031 7.37584 5.96048 7.6558C5.45065 7.93575 5.02403 8.34571 4.72401 8.844C4.42398 9.34229 4.26124 9.91113 4.25234 10.4927C4.24343 11.0743 4.38868 11.6478 4.67331 12.1551C4.95794 12.6623 5.3718 13.0851 5.87282 13.3806C6.37384 13.676 6.94416 13.8335 7.52579 13.8371C8.10742 13.8406 8.67962 13.6901 9.18422 13.4008C9.68882 13.1116 10.1078 12.6938 10.3986 12.1901L11.5506 10.2041C11.6004 10.0563 11.6954 9.9279 11.822 9.83692C11.9487 9.74594 12.1007 9.69701 12.2566 9.69701C12.4126 9.69701 12.5646 9.74594 12.6913 9.83692C12.8179 9.9279 12.9129 10.0563 12.9626 10.2041L14.1096 12.1911C14.4007 12.6948 14.82 13.1125 15.3249 13.4016C15.8297 13.6907 16.4022 13.8409 16.9839 13.8369C17.5657 13.833 18.136 13.6751 18.6369 13.3792C19.1378 13.0834 19.5515 12.6601 19.8357 12.1525C20.12 11.6449 20.2647 11.0711 20.2553 10.4894C20.2458 9.90769 20.0824 9.33889 19.7818 8.84081C19.4812 8.34274 19.054 7.93318 18.5437 7.65378C18.0334 7.37437 17.4582 7.2351 16.8766 7.25012L12.2506 7.27212L7.62665 7.25012Z" fill="#C47900"/>
</svg>
