<svg width="182" height="48" viewBox="0 0 182 48" fill="none" xmlns="http://www.w3.org/2000/svg">
<g clip-path="url(#clip0_1411_396)">
<path d="M5.26156 1.14205C5.26051 1.11863 5.26473 1.09573 5.26473 1.07284L4.84375 1.84213L5.43957 2.61409L6.4495 2.86005L6.76484 2.79244L7.03845 2.97078L9.07787 3.3706L8.98067 4.75426L9.11061 5.66677L9.33669 6.42222L10.3545 6.87261L11.4184 6.58992L11.4759 6.00057L10.6646 5.49853L10.8722 4.22135L11.9592 4.40396L12.0601 4.73403L12.564 4.81123L12.769 4.29801L13.2724 3.92588L12.8118 2.75144L13.3056 2.22279L13.5349 1.18038C13.0996 0.912063 12.6596 0.652261 12.2144 0.405768C11.7532 0.150225 11.047 -0.0350444 10.6002 0.137447C9.54374 0.545252 8.55283 0.448891 7.52018 0.200801C6.85358 0.0405538 5.95827 0.607541 5.99313 1.12715C6.00739 1.33531 5.89647 1.55199 5.84259 1.76441C5.63765 1.55784 5.27054 1.35713 5.26156 1.14205Z" fill="#070707"/>
<path d="M2.11592 6.94676L2.66579 7.08252L2.87813 7.09796L3.01388 6.98349L3.3794 5.1521L4.00374 3.25895L3.20192 2.12178L2.90876 1.75391C2.64519 2.31344 2.38689 2.8751 2.16399 3.45061C2.06416 3.70881 2.11909 4.05806 2.1867 4.34554C2.39482 5.23568 2.63991 6.09761 2.11592 6.94676Z" fill="#070707"/>
<path d="M18.7485 4.60865L18.7833 5.18628L19.6279 4.71033L20.0035 4.06402C19.9734 4.03527 19.9433 4.00652 19.9132 3.97937C19.5408 3.64131 19.1298 3.40653 18.6835 3.26172L18.4844 4.07094L18.4955 4.2775L18.7485 4.60865Z" fill="#070707"/>
<path d="M0.440393 11.2239C0.649035 11.3841 0.783728 11.7781 0.548675 12.1103L1.3674 12.3456L1.39751 12.3296L1.47621 12.0821L2.11745 10.9167L2.85008 10.2949L3.23937 9.53304L3.18919 9.01822L3.19922 8.89737L3.15961 8.85957L2.88494 9.07572L1.1989 8.24414C0.905216 8.68282 0.623681 9.12949 0.357464 9.58415C0.0553292 10.1006 -0.303853 10.6532 0.440393 11.2239Z" fill="#070707"/>
<path d="M16.2256 3.98207L16.0508 4.60389L16.0587 4.64329L16.1453 4.72101L16.9778 5.25233L16.953 5.29226L17.1178 5.15704L18.2497 5.21134L18.2254 4.80726L17.9708 4.47399L17.947 4.0204L18.1636 3.13878C17.9782 3.11003 17.7886 3.09246 17.5916 3.09193C17.206 3.0898 16.8331 3.08288 16.4691 3.00195L16.2256 3.98207Z" fill="#070707"/>
<path d="M13.7944 2.4849L13.4336 2.87141L13.7146 3.58906L13.7194 3.58214L14.2212 3.94362L14.8661 4.06554L14.6559 5.12019L15.0494 5.72391L15.3161 5.96774L15.9917 6.08167L16.5569 5.6185L15.8105 5.13882L15.576 4.9296L15.5036 4.58621L15.7128 3.84407L15.9653 2.82828C15.8126 2.75588 15.6616 2.66591 15.5116 2.54719C15.0335 2.16813 14.5312 1.81676 14.0167 1.48242L13.7944 2.4849Z" fill="#070707"/>
<path d="M13.1596 46.0336L12.0652 45.0109L11.5533 44.832L11.1123 43.8673L11.098 41.0105L11.2829 40.0549L10.4668 38.5366L10.498 37.3754L10.1203 36.0317L10.0997 33.9331L10.5355 32.157L9.94071 30.4731L10.2016 28.6859L10.1446 27.0643L10.5402 25.4038L10.7858 25.3415L10.8645 24.2719L10.9364 23.9344L10.7827 23.9887L10.5746 23.3903L9.22552 20.8066L9.17692 20.9605L9.03853 21.2576L8.67988 21.4487L8.21875 21.5754C8.25361 21.684 8.28161 21.7995 8.29164 21.9321C8.42105 23.6112 8.61438 25.2861 8.72002 26.9668C8.80031 28.2477 8.62441 29.5649 8.8526 30.8122C9.1653 32.5228 9.07022 34.1481 8.58744 35.7868C8.5436 35.9348 8.59167 36.1222 8.63498 36.2814C8.74907 36.702 8.89169 37.114 9.00789 37.5341C9.13466 37.9909 9.141 38.5185 9.38239 38.898C10.0553 39.9564 9.98983 41.0372 9.68294 42.1637C9.63805 42.3292 9.5435 42.5177 9.58417 42.6646C9.95656 44.0132 10.3289 45.3463 11.22 46.493C12.3927 48.0018 13.3577 48.3521 14.6175 47.6552C14.0877 47.1984 13.5188 46.7076 12.9003 46.1746C13.008 46.1145 13.0888 46.0714 13.1596 46.0336Z" fill="#070707"/>
<path d="M19.6486 29.9714L18.1363 28.6074C17.6393 29.3852 17.6192 29.9687 17.6002 30.6864C17.5933 30.9499 17.5727 31.19 17.5516 31.4296C17.5247 31.7362 17.4993 32.0253 17.5046 32.3176C17.5051 32.3421 17.5062 32.3708 17.5088 32.3969C17.7296 32.4102 17.9235 32.4576 18.1094 32.5226C18.8669 32.7893 19.6048 32.7738 20.2333 32.2468C20.4351 32.078 20.6401 31.9188 20.8424 31.7543L19.6486 29.9714Z" fill="#070707"/>
<path d="M31.3562 10.4256C31.0578 10.3745 30.7725 10.1877 30.5047 10.0242C30.1007 9.77773 29.7494 9.37684 29.3173 9.25865C28.6359 9.07232 27.9075 9.04996 27.1966 8.98927C26.6504 8.94295 26.1 8.94455 25.4942 8.92272C25.4424 8.81465 25.3838 8.47658 25.1836 8.31101C24.3696 7.63755 23.1294 7.82814 22.4802 8.6757C21.9763 9.33372 21.5601 9.41251 20.8908 8.95679C20.6262 8.77685 20.38 8.56869 19.9876 8.26736C20.4086 7.69718 20.8243 7.13392 21.2389 6.57225C20.9621 5.94085 20.6648 5.24023 20.3447 4.54601L20.0214 5.10235L19.5011 5.41166L18.8276 5.77581L17.2995 5.70287L16.1422 6.65105L15.0747 6.47057L14.6231 6.04626L14.0907 5.22905L14.2375 4.49277L14.0083 4.44965L13.7341 4.25213L13.2086 4.64024L12.9027 5.40581L11.6493 5.21362L11.5468 4.87875L11.3139 4.83935L11.2505 5.22746L12.0412 5.71672L11.9145 7.0136L10.3113 7.4395L8.89786 6.81396L8.58622 5.76197L8.44519 4.77227L8.51333 3.80653L6.79295 3.4493L6.66143 3.36306L6.44381 3.40991L5.13491 3.09101L4.20843 1.89102L5.24319 0C4.71023 0.224665 4.11863 0.471158 3.53127 0.736284C3.50169 0.749594 3.47264 0.767695 3.44464 0.789522L3.48743 0.792184L3.44464 1.5668L3.62846 1.79785L4.59666 3.1698L3.8952 5.29028L3.50116 7.27553L3.05482 7.65033L2.56095 7.6104L1.78607 7.41874C1.69363 7.54385 1.60542 7.67269 1.51562 7.79993L2.82136 8.44411L3.19744 8.14864L3.54447 8.48404L3.61948 8.3568L5.2247 9.32307L5.54268 9.58607L7.54248 9.59033L7.47487 9.29539L7.68774 7.96816L7.26042 7.56887L7.46114 6.64519L8.68605 6.32842L8.81916 6.84963L7.91223 7.08441L7.84725 7.3836L8.26348 7.77278L8.01787 9.27516L8.11083 9.6803L7.9867 11.1241L8.06329 11.4223L6.68256 11.476L6.16438 11.9349L5.78619 13.8105L7.13576 14.8779L7.84303 14.4073L8.03794 15.3166L9.03097 14.8854L9.95164 15.1196L11.5162 13.8536L11.9139 15.6685L15.3108 16.9665L15.4128 18.4007L17.0233 18.5924L17.5209 19.7327L17.3988 22.2844L19.0917 23.1373L19.0875 23.4935L19.8481 23.7075L19.6575 24.5939L20.2432 25.0731L19.7055 26.6042L18.4526 28.171L20.0716 29.642L21.2474 31.3994C21.3947 31.2604 21.5395 31.1135 21.6742 30.9426C22.2663 30.1935 22.7871 29.4338 23.2276 28.5985C23.262 28.5341 23.319 28.4728 23.3808 28.4335C23.9391 28.0757 23.9106 27.5635 23.8525 26.9779C23.8108 26.5557 23.8213 25.984 24.0643 25.7039C24.9638 24.6658 26.138 23.9231 27.4929 23.7868C28.2847 23.7075 28.7231 23.2768 28.9835 22.7678C29.8482 21.0781 30.4466 19.2967 30.1688 17.3306C30.0901 16.7727 29.9929 16.1674 30.707 15.8554C30.856 15.7904 30.9231 15.529 31.0219 15.3544C31.2104 15.0212 31.3927 14.6842 31.5807 14.3504C31.9573 13.6806 32.4723 13.0524 32.681 12.3332C32.9889 11.2716 32.4248 10.6093 31.3562 10.4256Z" fill="#070707"/>
<path d="M7.93506 21.0961L8.50711 20.939L8.62912 20.8709L8.68036 20.7628L9.06384 19.5341L8.83829 19.1167L8.92703 18.7345L9.24607 17.9849L8.87157 17.3822L9.08972 16.6715L8.28896 15.7936L7.65299 16.0699L7.48608 15.2899L7.10947 15.5407L5.19735 14.0287L5.67644 11.65L6.47245 10.9452L7.37938 10.9095L7.17761 10.1274L5.34948 10.1232L4.9005 9.75157L3.72894 9.04883L3.78651 9.63764L3.27573 10.6364L2.50032 11.2944L1.95997 12.3113L1.84587 12.7004L1.34936 12.9613L1.1085 12.8154L0.141876 12.5535C-0.0799718 13.0028 0.12286 13.8222 0.539616 14.0788C0.923095 14.3146 1.277 14.6303 1.57174 14.9742C1.93831 15.4023 2.26527 15.8649 2.59752 16.3228L2.60068 16.3382L2.80721 16.6097C2.81936 16.6262 2.83151 16.6433 2.84419 16.6598L2.84524 16.6592L3.72048 17.8092L3.777 17.8049C3.9735 18.0471 4.14833 18.2686 4.21647 18.5188C4.48005 19.4851 5.22641 19.8487 6.01449 20.1921C6.3573 20.3412 6.7281 20.4248 7.07514 20.5658C7.40843 20.7016 7.71215 20.8597 7.93506 21.0961Z" fill="#070707"/>
<path d="M17.8745 33.5273C17.6252 33.3383 17.3933 33.1253 17.1857 32.8943C17.125 32.8261 17.0616 32.7505 17.0199 32.6483C16.9713 32.5291 16.9692 32.4119 16.9671 32.3262C16.9623 32.0052 16.9898 31.6879 17.0162 31.3818C17.0363 31.1523 17.0563 30.9234 17.0627 30.6934C17.0833 29.9108 17.1102 29.1846 17.7324 28.2445L17.7166 28.2301L19.2579 26.3023L19.615 25.2535L19.494 25.1545L19.185 26.1165L17.7134 27.185L15.4363 27.365L16.2175 24.6498L14.5178 23.6154L13.7651 23.2598L13.2517 24.0434L12.3442 23.4509L11.8281 23.3705L11.6713 23.7756L11.4521 24.0567L11.3876 24.3501L11.2862 25.7689L10.9798 25.8466L10.6766 27.119L10.7332 28.7161L10.4844 30.4187L11.0886 32.1298L10.6307 33.9963L10.6502 35.9901L11.0305 37.3061L11.001 38.4076L11.8403 39.9691L11.6285 41.0621L11.6417 43.749L11.9391 44.3996L12.3421 44.5401L13.1703 45.3137C13.0457 44.5636 13.6314 43.97 13.9626 43.3843C14.2542 42.869 14.3075 42.6166 13.8533 42.2717C13.296 41.8495 13.2316 41.4167 13.6832 40.8065C14.1221 40.2135 14.4053 39.5033 14.7423 38.8719C13.951 38.068 13.9779 38.0264 14.9092 37.6277C15.102 37.5452 15.2805 37.1736 15.2794 36.9361C15.2773 36.2627 15.6217 35.9033 16.2149 35.8964C16.9116 35.8879 17.3532 35.5019 17.8286 35.0973C18.3193 34.6794 18.3911 34.2407 18.0076 33.7163C17.9627 33.6529 17.9194 33.5896 17.8745 33.5273Z" fill="#070707"/>
<path d="M16.8492 22.6077L16.9031 21.4817L16.5972 21.3119L16.0209 21.231L15.9972 21.166L15.5825 21.2571L14.9408 21.3342L14.5372 21.5041L14.2969 22.916L14.7723 23.1417L16.8481 24.4024L16.1673 26.7672L17.5258 26.6607L18.7338 25.7834L19.1052 24.626L19.2208 24.0883L18.55 23.8993L18.5548 23.467L16.8492 22.6077Z" fill="#070707"/>
<path d="M14.912 18.8819L14.8032 17.3465L11.4554 16.0677L11.1808 14.8145L10.0795 15.7057L9.0764 15.4507L8.80859 15.5672L9.6907 16.5346L9.45459 17.3049L9.84705 17.9374L9.42765 18.9223L9.40283 19.0352L9.62045 19.4371L9.57502 19.7038L9.45565 20.0786L9.56552 20.0478L9.72609 20.6249L11.0619 23.1771L11.1866 23.5301L11.2278 23.4768L11.475 22.7698L12.542 22.9365L13.1008 23.3012L13.5767 22.5739L13.7954 22.6777L14.0606 21.1216L14.8407 20.8038L15.4947 20.7266L16.3361 20.5408L16.4106 20.742L16.8115 20.816L16.9314 20.8831L16.9816 19.8316L16.6578 19.0889L14.912 18.8819Z" fill="#070707"/>
<path d="M49.4486 24.8284V24.0008C50.4827 22.9279 51.0301 21.4872 51.0301 19.9852V4.8425H48.2321C46.8027 4.8425 45.4037 5.39426 44.4609 6.46712H42.7578V3.37115H62.6174V6.46712H60.9751C60.0019 5.39426 58.5421 4.8425 57.1431 4.8425H54.406V19.9852C54.406 21.4872 54.8926 22.9279 55.9266 24.0008V24.8284H49.4486ZM64.4749 14.0998C64.4749 7.81587 69.6451 2.97266 76.0014 2.97266C82.4185 2.97266 87.5583 7.81587 87.5583 14.0998C87.5583 20.4143 82.4185 25.2269 76.0014 25.2269C69.6451 25.2269 64.4749 20.4143 64.4749 14.0998ZM69.0977 15.7857C70.7704 21.3646 74.9674 24.8284 79.0123 23.8782C83.118 22.9279 85.0644 17.9314 83.4221 12.3832C81.7798 6.80431 77.0963 3.49376 73.0209 4.44401C68.9456 5.39426 67.425 10.2681 69.0977 15.7857ZM96.1066 24.8284V24.0008C97.1406 22.9279 97.6881 21.4872 97.6881 19.9852V4.8425H94.8901C93.4607 4.8425 92.0617 5.39426 91.1189 6.46712H89.4158V3.37115H109.275V6.46712H107.633C106.66 5.39426 105.2 4.8425 103.801 4.8425H101.064V19.9852C101.064 21.4872 101.551 22.9279 102.585 24.0008V24.8284H96.1066ZM110.281 24.8284V24.0008L111.65 22.5294C111.802 22.3455 111.893 22.1922 112.015 21.9163L119.223 3.37115H122.507L129.746 21.855C129.867 22.1616 130.05 22.3455 130.293 22.5601L131.966 24.0008V24.8284H125.488V24.0008L125.64 23.9088C126.4 23.3877 126.674 22.4988 126.339 21.6405L124.94 18.054H114.934L113.414 21.9163C113.14 22.652 113.353 23.4797 113.931 24.0008V24.8284H110.281ZM115.421 16.8279H124.484L119.953 5.17969L115.421 16.8279ZM133.732 24.8284V24.0008C134.736 22.9279 135.283 21.4565 135.283 19.9852V8.24501C135.283 6.77366 134.736 5.3023 133.732 4.22944V3.37115H140.21V4.22944C139.176 5.3023 138.659 6.77366 138.659 8.24501V23.4184H143.434C145.046 23.4184 146.597 22.9279 147.874 21.9777H148.847V24.8284H133.732ZM150.735 24.8284V24.0008C151.739 22.9279 152.286 21.4565 152.286 19.9852V8.24501C152.286 6.77366 151.739 5.3023 150.735 4.22944V3.37115H157.213V4.22944C156.179 5.3023 155.662 6.77366 155.662 8.24501V23.4184H160.437C162.049 23.4184 163.6 22.9279 164.877 21.9777H165.85V24.8284H150.735ZM169.167 24.8284V24.0008C170.202 22.9279 170.81 21.4565 170.81 19.9545V14.8661L165.214 5.91537C165.092 5.70079 164.91 5.48622 164.697 5.36361L162.994 4.22944V3.37115H169.137V4.22944L168.985 4.3827C168.468 4.99577 168.438 5.85406 168.803 6.43647L173.517 14.253L178.656 6.58974C179.113 5.88471 178.991 4.8425 178.322 4.29074V3.37115H182.002V4.29074L181.089 4.87316C180.937 4.99577 180.785 5.14904 180.664 5.3023L174.094 14.9274V19.9545C174.094 21.4565 174.672 22.9279 175.706 24.0008V24.8284H169.167Z" fill="#070707"/>
<path d="M52.9256 42.374C52.9718 42.374 53.0026 42.405 53.0026 42.4516V44.9821H46.7645C46.7183 44.9821 46.6875 44.951 46.6875 44.9045C46.6875 44.8579 46.7183 44.8269 46.7645 44.8269H47.2112C47.4114 44.8269 47.5347 44.6716 47.5347 44.5008V35.2327C47.5347 35.0619 47.4114 34.9067 47.2112 34.9067H46.7645C46.7183 34.9067 46.6875 34.8756 46.6875 34.8291C46.6875 34.7825 46.7183 34.7515 46.7645 34.7515H49.2752C49.3214 34.7515 49.3522 34.7825 49.3522 34.8291C49.3522 34.8756 49.3214 34.9067 49.2752 34.9067H48.8285C48.6283 34.9067 48.505 35.0619 48.505 35.2327V44.5008C48.505 44.6716 48.6283 44.8269 48.8285 44.8269H50.9541C52.2171 44.8269 52.8486 43.8333 52.8486 42.7621V42.4516C52.8486 42.405 52.8794 42.374 52.9256 42.374ZM65.2355 44.8269C65.2817 44.8269 65.3125 44.8579 65.3125 44.9045C65.3125 44.951 65.2817 44.9821 65.2355 44.9821H62.1242C62.078 44.9821 62.0472 44.951 62.0472 44.9045C62.0472 44.8579 62.078 44.8269 62.1242 44.8269H62.6787C62.9867 44.8269 63.1562 44.594 63.0483 44.2835L62.0626 41.5978H58.0116L56.995 44.2835C56.8872 44.5629 57.0567 44.8269 57.3647 44.8269H57.9192C57.9654 44.8269 57.9962 44.8579 57.9962 44.9045C57.9962 44.951 57.9654 44.9821 57.9192 44.9821H55.7474C55.7012 44.9821 55.6704 44.951 55.6704 44.9045C55.6704 44.8579 55.7012 44.8269 55.7474 44.8269H56.1171C56.5176 44.8269 56.7024 44.625 56.8256 44.2835L60.4607 34.7049H60.6147L64.1419 44.299C64.2498 44.5785 64.4654 44.8269 64.8967 44.8269H65.2355ZM58.0732 41.4425H62.0164L60.0756 36.1642L58.0732 41.4425ZM75.5893 34.7515V37.4372C75.5893 37.4838 75.5585 37.5148 75.5123 37.5148C75.4661 37.5148 75.4353 37.4838 75.4353 37.4372V36.661C75.4353 35.5898 74.8037 34.9067 73.5407 34.9067H72.632C72.4317 34.9067 72.3085 35.0619 72.3085 35.2327V44.5008C72.3085 44.6716 72.4317 44.8269 72.632 44.8269H73.0786C73.1248 44.8269 73.1556 44.8579 73.1556 44.9045C73.1556 44.951 73.1248 44.9821 73.0786 44.9821H70.568C70.5218 44.9821 70.491 44.951 70.491 44.9045C70.491 44.8579 70.5218 44.8269 70.568 44.8269H71.0147C71.2149 44.8269 71.3381 44.6716 71.3381 44.5008V35.2327C71.3381 35.0619 71.2149 34.9067 71.0147 34.9067H70.414C68.9969 34.9067 68.2114 35.4345 68.2114 36.9715V37.4372C68.2114 37.4838 68.1805 37.5148 68.1343 37.5148C68.0881 37.5148 68.0573 37.4838 68.0573 37.4372V34.7515H75.5893ZM81.3684 44.8269C81.4146 44.8269 81.4454 44.8579 81.4454 44.9045C81.4454 44.951 81.4146 44.9821 81.3684 44.9821H78.8578C78.8116 44.9821 78.7807 44.951 78.7807 44.9045C78.7807 44.8579 78.8116 44.8269 78.8578 44.8269H79.3044C79.5047 44.8269 79.6279 44.6716 79.6279 44.5008V35.2327C79.6279 35.0619 79.5047 34.9067 79.3044 34.9067H78.8578C78.8116 34.9067 78.7807 34.8756 78.7807 34.8291C78.7807 34.7825 78.8116 34.7515 78.8578 34.7515H81.3684C81.4146 34.7515 81.4454 34.7825 81.4454 34.8291C81.4454 34.8756 81.4146 34.9067 81.3684 34.9067H80.9217C80.7215 34.9067 80.5983 35.0619 80.5983 35.2327V44.5008C80.5983 44.6716 80.7215 44.8269 80.9217 44.8269H81.3684ZM93.1546 34.7515C93.2008 34.7515 93.2316 34.7825 93.2316 34.8291C93.2316 34.8756 93.2008 34.9067 93.1546 34.9067H92.7079C92.5077 34.9067 92.3845 35.0619 92.3845 35.2327V44.9821H91.9532L85.8537 35.6984V44.5008C85.8537 44.6716 85.9769 44.8269 86.1772 44.8269H86.6238C86.6701 44.8269 86.7009 44.8579 86.7009 44.9045C86.7009 44.951 86.6701 44.9821 86.6238 44.9821H84.9295C84.8833 44.9821 84.8525 44.951 84.8525 44.9045C84.8525 44.8579 84.8833 44.8269 84.9295 44.8269H85.3762C85.5765 44.8269 85.6997 44.6716 85.6997 44.5008V35.2327C85.6997 35.0619 85.5765 34.9067 85.3762 34.9067H84.9295C84.8833 34.9067 84.8525 34.8756 84.8525 34.8291C84.8525 34.7825 84.8833 34.7515 84.9295 34.7515H86.4082L92.2305 43.6159V35.2327C92.2305 35.0619 92.1072 34.9067 91.907 34.9067H91.4603C91.4141 34.9067 91.3833 34.8756 91.3833 34.8291C91.3833 34.7825 91.4141 34.7515 91.4603 34.7515H93.1546ZM111.66 44.8269C111.706 44.8269 111.737 44.8579 111.737 44.9045C111.737 44.951 111.706 44.9821 111.66 44.9821H108.548C108.502 44.9821 108.471 44.951 108.471 44.9045C108.471 44.8579 108.502 44.8269 108.548 44.8269H109.103C109.411 44.8269 109.58 44.594 109.472 44.2835L108.487 41.5978H104.436L103.419 44.2835C103.311 44.5629 103.481 44.8269 103.789 44.8269H104.343C104.389 44.8269 104.42 44.8579 104.42 44.9045C104.42 44.951 104.389 44.9821 104.343 44.9821H102.171C102.125 44.9821 102.094 44.951 102.094 44.9045C102.094 44.8579 102.125 44.8269 102.171 44.8269H102.541C102.942 44.8269 103.126 44.625 103.25 44.2835L106.885 34.7049H107.039L110.566 44.299C110.674 44.5785 110.889 44.8269 111.321 44.8269H111.66ZM104.497 41.4425H108.44L106.5 36.1642L104.497 41.4425ZM119.857 45.0287H119.703L115.698 35.3569V44.5008C115.698 44.6716 115.821 44.8269 116.022 44.8269H116.468C116.514 44.8269 116.545 44.8579 116.545 44.9045C116.545 44.951 116.514 44.9821 116.468 44.9821H114.774C114.728 44.9821 114.697 44.951 114.697 44.9045C114.697 44.8579 114.728 44.8269 114.774 44.8269H115.221C115.421 44.8269 115.544 44.6716 115.544 44.5008V35.2327C115.544 35.0619 115.421 34.9067 115.221 34.9067H114.774C114.728 34.9067 114.697 34.8756 114.697 34.8291C114.697 34.7825 114.728 34.7515 114.774 34.7515H116.499L120.196 43.6936L123.646 34.7515H125.371C125.417 34.7515 125.448 34.7825 125.448 34.8291C125.448 34.8756 125.417 34.9067 125.371 34.9067H124.924C124.724 34.9067 124.601 35.0619 124.601 35.2327V44.5008C124.601 44.6716 124.724 44.8269 124.924 44.8269H125.371C125.417 44.8269 125.448 44.8579 125.448 44.9045C125.448 44.951 125.417 44.9821 125.371 44.9821H122.86C122.814 44.9821 122.783 44.951 122.783 44.9045C122.783 44.8579 122.814 44.8269 122.86 44.8269H123.307C123.507 44.8269 123.631 44.6716 123.631 44.5008V35.2327L119.857 45.0287ZM135.448 42.2187C135.494 42.2187 135.525 42.2498 135.525 42.2964V44.9821H128.932C128.886 44.9821 128.855 44.951 128.855 44.9045C128.855 44.8579 128.886 44.8269 128.932 44.8269H129.379C129.579 44.8269 129.702 44.6716 129.702 44.5008V35.2327C129.702 35.0619 129.579 34.9067 129.379 34.9067H128.932C128.886 34.9067 128.855 34.8756 128.855 34.8291C128.855 34.7825 128.886 34.7515 128.932 34.7515H135.448V37.4372C135.448 37.4838 135.417 37.5148 135.371 37.5148C135.324 37.5148 135.294 37.4838 135.294 37.4372V36.661C135.294 35.5898 134.662 34.9067 133.399 34.9067H130.996C130.796 34.9067 130.673 35.0619 130.673 35.2327V39.564H132.167C133.461 39.564 133.491 39.1138 133.491 38.4929V38.3221C133.491 38.2755 133.522 38.2445 133.568 38.2445C133.615 38.2445 133.645 38.2755 133.645 38.3221V40.9613C133.645 41.0078 133.615 41.0389 133.568 41.0389C133.522 41.0389 133.491 41.0078 133.491 40.9613V40.775C133.491 40.1695 133.461 39.7193 132.167 39.7193H130.673V44.5008C130.673 44.6716 130.796 44.8269 130.996 44.8269H133.476C134.739 44.8269 135.371 44.1438 135.371 43.0726V42.2964C135.371 42.2498 135.401 42.2187 135.448 42.2187ZM147.265 44.3611C147.311 44.3611 147.342 44.3922 147.342 44.4387C147.342 44.5629 146.833 45.0597 146.156 45.0597C143.46 45.0597 146.325 39.9522 141.951 39.9522H141.427V44.5008C141.427 44.6716 141.55 44.8269 141.75 44.8269H142.197C142.243 44.8269 142.274 44.8579 142.274 44.9045C142.274 44.951 142.243 44.9821 142.197 44.9821H139.686C139.64 44.9821 139.609 44.951 139.609 44.9045C139.609 44.8579 139.64 44.8269 139.686 44.8269H140.133C140.333 44.8269 140.457 44.6716 140.457 44.5008V35.2327C140.457 35.0619 140.333 34.9067 140.133 34.9067H139.686C139.64 34.9067 139.609 34.8756 139.609 34.8291C139.609 34.7825 139.64 34.7515 139.686 34.7515H142.613C144.492 34.7515 145.894 35.5122 145.894 37.1577C145.894 38.6481 144.739 39.6572 142.798 39.8745C146.926 40.3868 144.923 44.7648 146.479 44.7648C146.987 44.7648 147.141 44.3611 147.265 44.3611ZM141.427 39.7969H142.213C144.215 39.7969 144.893 38.3842 144.893 37.1577C144.893 35.6984 144.215 34.9067 142.444 34.9067H141.75C141.55 34.9067 141.427 35.0619 141.427 35.2327V39.7969ZM152.813 44.8269C152.859 44.8269 152.89 44.8579 152.89 44.9045C152.89 44.951 152.859 44.9821 152.813 44.9821H150.302C150.256 44.9821 150.225 44.951 150.225 44.9045C150.225 44.8579 150.256 44.8269 150.302 44.8269H150.749C150.949 44.8269 151.072 44.6716 151.072 44.5008V35.2327C151.072 35.0619 150.949 34.9067 150.749 34.9067H150.302C150.256 34.9067 150.225 34.8756 150.225 34.8291C150.225 34.7825 150.256 34.7515 150.302 34.7515H152.813C152.859 34.7515 152.89 34.7825 152.89 34.8291C152.89 34.8756 152.859 34.9067 152.813 34.9067H152.366C152.166 34.9067 152.043 35.0619 152.043 35.2327V44.5008C152.043 44.6716 152.166 44.8269 152.366 44.8269H152.813ZM164.168 36.4281C164.168 35.7916 163.182 34.8601 161.334 34.8601C159.208 34.8601 157.698 36.366 157.698 39.8745C157.698 42.9018 158.9 44.8113 161.334 44.8113C163.151 44.8113 164.337 43.5383 164.599 42.8397C164.614 42.7931 164.645 42.7776 164.676 42.7776C164.738 42.7776 164.768 42.8242 164.753 42.8863C164.63 43.2744 164.245 43.8178 163.659 44.2524C163.059 44.7027 162.227 45.0597 161.241 45.0597C158.33 45.0597 156.697 42.8708 156.697 39.8745C156.697 36.366 158.73 34.6738 161.179 34.6738C163.475 34.6738 164.784 35.9313 164.784 37.1422C164.784 37.8098 164.445 38.0892 164.121 38.0892C163.813 38.0892 163.521 37.8564 163.521 37.4838C163.521 36.9559 164.168 36.8628 164.168 36.4281ZM177.664 44.8269C177.71 44.8269 177.741 44.8579 177.741 44.9045C177.741 44.951 177.71 44.9821 177.664 44.9821H174.552C174.506 44.9821 174.475 44.951 174.475 44.9045C174.475 44.8579 174.506 44.8269 174.552 44.8269H175.107C175.415 44.8269 175.584 44.594 175.476 44.2835L174.491 41.5978H170.44L169.423 44.2835C169.315 44.5629 169.485 44.8269 169.793 44.8269H170.347C170.393 44.8269 170.424 44.8579 170.424 44.9045C170.424 44.951 170.393 44.9821 170.347 44.9821H168.175C168.129 44.9821 168.098 44.951 168.098 44.9045C168.098 44.8579 168.129 44.8269 168.175 44.8269H168.545C168.946 44.8269 169.13 44.625 169.254 44.2835L172.889 34.7049H173.043L176.57 44.299C176.678 44.5785 176.893 44.8269 177.325 44.8269H177.664ZM170.501 41.4425H174.444L172.504 36.1642L170.501 41.4425Z" fill="#070707"/>
</g>
<defs>
<clipPath id="clip0_1411_396">
<rect width="182" height="48" fill="white"/>
</clipPath>
</defs>
</svg>
