<svg width="299" height="80" viewBox="0 0 299 80" fill="none" xmlns="http://www.w3.org/2000/svg">
<g clip-path="url(#clip0_1411_20)">
<path d="M8.64344 1.90342C8.6417 1.86438 8.64865 1.82622 8.64865 1.78807L7.95703 3.07022L8.93588 4.35681L10.5951 4.76675L11.1131 4.65406L11.5626 4.95131L14.9131 5.61767L14.7534 7.92377L14.9669 9.44461L15.3383 10.7037L17.0105 11.4544L18.7582 10.9832L18.8528 10.001L17.5199 9.16422L17.8609 7.03558L19.6468 7.33993L19.8125 7.89006L20.6404 8.01871L20.9771 7.16335L21.804 6.54313L21.0473 4.58574L21.8587 3.70465L22.2353 1.96731C21.5203 1.52011 20.7974 1.0871 20.0659 0.67628C19.3083 0.250374 18.1481 -0.0584074 17.414 0.229079C15.6785 0.908753 14.0505 0.748151 12.354 0.334668C11.2589 0.0675896 9.78803 1.01257 9.8453 1.87858C9.86873 2.22551 9.6865 2.58664 9.59799 2.94068C9.26129 2.5964 8.65819 2.26189 8.64344 1.90342Z" fill="white"/>
<path d="M3.4756 11.5776L4.37895 11.8039L4.7278 11.8296L4.95081 11.6388L5.55131 8.58651L6.57702 5.43126L5.25974 3.53598L4.77813 2.92285C4.34511 3.85541 3.92077 4.79151 3.55457 5.75069C3.39056 6.18103 3.48081 6.7631 3.59188 7.24224C3.93379 8.72581 4.33643 10.1624 3.4756 11.5776Z" fill="white"/>
<path d="M30.8011 7.68238L30.8583 8.6451L32.2459 7.85185L32.8629 6.77467C32.8134 6.72675 32.764 6.67884 32.7145 6.63358C32.1027 6.07015 31.4276 5.67885 30.6943 5.4375L30.3672 6.7862L30.3854 7.13047L30.8011 7.68238Z" fill="white"/>
<path d="M0.723502 18.7074C1.06627 18.9745 1.28755 19.6311 0.901395 20.1848L2.24644 20.577L2.2959 20.5504L2.4252 20.1378L3.47867 18.1955L4.68227 17.1591L5.32182 15.8894L5.23938 15.0314L5.25587 14.8299L5.19078 14.7669L4.73954 15.1272L1.96962 13.7412C1.48714 14.4723 1.02462 15.2168 0.587263 15.9746C0.0908979 16.8352 -0.499186 17.7563 0.723502 18.7074Z" fill="white"/>
<path d="M26.6583 6.63743L26.3711 7.6738L26.3841 7.73946L26.5264 7.86901L27.894 8.75454L27.8532 8.82108L28.124 8.59571L29.9836 8.68621L29.9437 8.01275L29.5254 7.4573L29.4864 6.70132L29.8422 5.23194C29.5376 5.18403 29.2261 5.15475 28.9024 5.15386C28.2689 5.15031 27.6563 5.13878 27.0584 5.00391L26.6583 6.63743Z" fill="white"/>
<path d="M22.6591 4.1415L22.0664 4.78568L22.5281 5.98176L22.5359 5.97023L23.3603 6.57271L24.4198 6.7759L24.0744 8.53365L24.7209 9.53985L25.1591 9.94623L26.269 10.1361L27.1975 9.36416L25.9714 8.5647L25.5861 8.21599L25.4672 7.64368L25.8108 6.40678L26.2256 4.71381C25.9748 4.59313 25.7267 4.44318 25.4802 4.24531C24.6949 3.61355 23.8696 3.02793 23.0244 2.4707L22.6591 4.1415Z" fill="white"/>
<path d="M21.6171 76.7245L19.8191 75.02L18.9782 74.7219L18.2536 73.1141L18.2302 68.3528L18.5339 66.7601L17.1932 64.2295L17.2444 62.2943L16.624 60.0548L16.5901 56.557L17.306 53.597L16.3289 50.7905L16.7576 47.8118L16.6639 45.1091L17.3139 42.3416L17.7174 42.2377L17.8467 40.4551L17.9647 39.8926L17.7122 39.9831L17.3703 38.9858L15.154 34.6797L15.0741 34.9361L14.8468 35.4312L14.2576 35.7498L13.5 35.961C13.5573 36.142 13.6033 36.3345 13.6198 36.5554C13.8324 39.354 14.15 42.1455 14.3235 44.9467C14.4554 47.0815 14.1664 49.2767 14.5413 51.3557C15.055 54.2066 14.8988 56.9155 14.1057 59.6466C14.0337 59.8933 14.1126 60.2056 14.1838 60.4709C14.3712 61.1719 14.6055 61.8587 14.7965 62.5588C15.0047 63.3201 15.0151 64.1994 15.4117 64.832C16.5172 66.596 16.4096 68.3972 15.9055 70.2747C15.8317 70.5507 15.6764 70.8648 15.7432 71.1097C16.355 73.3572 16.9667 75.579 18.4307 77.4903C20.3571 80.0049 21.9425 80.5888 24.0122 79.4273C23.1418 78.666 22.2072 77.8479 21.1911 76.9597C21.3681 76.8594 21.5008 76.7875 21.6171 76.7245Z" fill="white"/>
<path d="M32.2773 49.951L29.7929 47.6777C28.9763 48.9741 28.9434 49.9466 28.9121 51.1427C28.9008 51.5819 28.867 51.982 28.8323 52.3813C28.788 52.8924 28.7464 53.3742 28.7551 53.8613C28.7559 53.9022 28.7577 53.9501 28.762 53.9936C29.1247 54.0157 29.4432 54.0947 29.7487 54.203C30.993 54.6475 32.2053 54.6218 33.238 53.7433C33.5695 53.4621 33.9061 53.1968 34.2385 52.9226L32.2773 49.951Z" fill="white"/>
<path d="M51.5121 17.3761C51.0218 17.2909 50.5532 16.9794 50.1133 16.707C49.4494 16.2962 48.8723 15.6281 48.1625 15.4311C47.0431 15.1205 45.8464 15.0833 44.6784 14.9821C43.7811 14.9049 42.8769 14.9076 41.8816 14.8712C41.7965 14.6911 41.7002 14.1276 41.3713 13.8517C40.0341 12.7293 37.9966 13.0469 36.9301 14.4595C36.1022 15.5562 35.4184 15.6875 34.319 14.928C33.8842 14.6281 33.4798 14.2811 32.8351 13.7789C33.5267 12.8286 34.2096 11.8899 34.8908 10.9538C34.4361 9.90142 33.9476 8.73373 33.4217 7.57668L32.8906 8.50391L32.0359 9.01944L30.9295 9.62635L28.419 9.50479L26.5177 11.0851L24.7639 10.7843L24.022 10.0771L23.1473 8.71509L23.3885 7.48795L23.0119 7.41608L22.5615 7.08689L21.6981 7.73373L21.1957 9.00968L19.1365 8.68936L18.9681 8.13125L18.5854 8.06559L18.4813 8.71243L19.7803 9.52786L19.5721 11.6893L16.9384 12.3992L14.6162 11.3566L14.1043 9.60328L13.8726 7.95379L13.9845 6.34422L11.1582 5.74884L10.9421 5.60509L10.5846 5.68318L8.43424 5.15168L6.91217 3.1517L8.61214 0C7.73656 0.374442 6.76465 0.785263 5.79969 1.22714C5.7511 1.24932 5.70337 1.27949 5.65738 1.31587L5.72767 1.32031L5.65738 2.61133L5.95936 2.99642L7.54999 5.283L6.39759 8.81713L5.75023 12.1259L5.01696 12.7505L4.2056 12.684L2.93258 12.3646C2.78072 12.5731 2.6358 12.7878 2.48828 12.9999L4.63341 14.0735L5.25126 13.5811L5.82139 14.1401L5.94461 13.928L8.58176 15.5385L9.10416 15.9768L12.3895 15.9839L12.2785 15.4923L12.6282 13.2803L11.9262 12.6148L12.2559 11.0753L14.2683 10.5474L14.4869 11.416L12.997 11.8073L12.8902 12.306L13.574 12.9546L13.1705 15.4586L13.3233 16.1338L13.1193 18.5402L13.2452 19.0371L10.9768 19.1267L10.1255 19.8916L9.5042 23.0175L11.7214 24.7966L12.8833 24.0122L13.2035 25.5277L14.8349 24.809L16.3474 25.1994L18.9178 23.0894L19.5712 26.1142L25.1518 28.2775L25.3193 30.6679L27.9652 30.9873L28.7826 32.8879L28.5821 37.1407L31.3633 38.5622L31.3564 39.1558L32.606 39.5125L32.2927 40.9899L33.2551 41.7884L32.3717 44.3403L30.3133 46.9517L32.9731 49.4033L34.9047 52.3323C35.1468 52.1007 35.3846 51.8558 35.6059 51.571C36.5786 50.3225 37.4343 49.0563 38.158 47.6642C38.2144 47.5568 38.3081 47.4548 38.4096 47.3891C39.3269 46.7928 39.28 45.9392 39.1846 44.9632C39.116 44.2596 39.1334 43.3066 39.5325 42.8399C41.0103 41.1096 42.9394 39.8719 45.1652 39.6447C46.466 39.5125 47.1863 38.7947 47.6141 37.9464C49.0346 35.1301 50.0178 32.1612 49.5614 28.8844C49.4321 27.9545 49.2724 26.9456 50.4456 26.4257C50.6903 26.3174 50.8005 25.8817 50.9628 25.5907C51.2726 25.0353 51.572 24.4736 51.8809 23.9173C52.4996 22.801 53.3457 21.754 53.6885 20.5553C54.1944 18.786 53.2676 17.6822 51.5121 17.3761Z" fill="white"/>
<path d="M13.0348 35.1598L13.9746 34.8981L14.175 34.7845L14.2592 34.6044L14.8892 32.5565L14.5187 31.8608L14.6644 31.2238L15.1886 29.9744L14.5733 28.97L14.9317 27.7855L13.6162 26.3223L12.5714 26.7828L12.2972 25.4829L11.6784 25.9008L8.53712 23.3809L9.32419 19.4164L10.6319 18.2416L12.1219 18.1822L11.7904 16.8787L8.78703 16.8716L8.04943 16.2523L6.12472 15.0811L6.2193 16.0624L5.38017 17.727L4.10628 18.8237L3.21855 20.5184L3.03111 21.1671L2.21541 21.6018L1.81971 21.3587L0.231686 20.9222C-0.132777 21.6711 0.200447 23.0366 0.885118 23.4643C1.51512 23.8574 2.09653 24.3835 2.58074 24.9567C3.18297 25.6701 3.72012 26.4412 4.26595 27.2043L4.27116 27.23L4.61046 27.6825C4.63041 27.71 4.65037 27.7384 4.6712 27.7659L4.67294 27.7651L6.11083 29.6816L6.20368 29.6745C6.52649 30.0783 6.81373 30.4474 6.92567 30.8644C7.35869 32.4749 8.58484 33.0809 9.87956 33.6532C10.4427 33.9016 11.0519 34.0409 11.622 34.2761C12.1696 34.5023 12.6686 34.7659 13.0348 35.1598Z" fill="white"/>
<path d="M29.3675 55.8801C28.9579 55.5651 28.577 55.2102 28.236 54.8251C28.1362 54.7115 28.032 54.5855 27.9635 54.4152C27.8836 54.2164 27.8802 54.0212 27.8767 53.8784C27.8689 53.3433 27.914 52.8145 27.9574 52.3043C27.9904 51.9219 28.0234 51.5403 28.0338 51.157C28.0676 49.8527 28.1119 48.6424 29.1341 47.0754L29.1081 47.0514L31.6402 43.8385L32.2268 42.0905L32.0281 41.9255L31.5205 43.5288L29.1029 45.3097L25.3619 45.6096L26.6453 41.0843L23.8529 39.3603L22.6163 38.7676L21.7728 40.0737L20.282 39.0861L19.4342 38.9521L19.1764 39.6274L18.8163 40.0959L18.7104 40.5848L18.5438 42.9494L18.0405 43.079L17.5424 45.1996L17.6353 47.8616L17.2266 50.6991L18.2193 53.5509L17.4669 56.6618L17.499 59.9848L18.1238 62.1782L18.0752 64.014L19.4541 66.6165L19.1062 68.4381L19.1278 72.9163L19.6164 74.0006L20.2785 74.2349L21.6392 75.5241C21.4344 74.2739 22.3967 73.2846 22.9408 72.3085C23.4198 71.4496 23.5075 71.029 22.7612 70.4541C21.8457 69.7504 21.7398 69.0291 22.4818 68.0122C23.2029 67.0237 23.668 65.8401 24.2217 64.7877C22.9217 63.4479 22.966 63.3787 24.4959 62.7141C24.8126 62.5766 25.1059 61.9572 25.1042 61.5615C25.1007 60.4391 25.6665 59.8401 26.641 59.8286C27.7856 59.8144 28.511 59.1711 29.292 58.4968C30.0982 57.8002 30.2162 57.0691 29.5862 56.1951C29.5125 56.0895 29.4413 55.9839 29.3675 55.8801Z" fill="white"/>
<path d="M27.6774 37.6802L27.766 35.8035L27.2635 35.5205L26.3168 35.3856L26.2777 35.2773L25.5965 35.4291L24.5422 35.5577L23.8792 35.8408L23.4844 38.1939L24.2654 38.5701L27.6757 40.6713L26.5572 44.6127L28.7891 44.4352L30.7736 42.9729L31.3837 41.0439L31.5737 40.1478L30.4717 39.8328L30.4795 39.1123L27.6774 37.6802Z" fill="white"/>
<path d="M24.4958 31.4704L24.3171 28.9114L18.8171 26.7801L18.3659 24.6914L16.5566 26.1768L14.9087 25.7517L14.4688 25.9461L15.9179 27.5583L15.53 28.8422L16.1748 29.8963L15.4858 31.5378L15.445 31.7259L15.8025 32.3959L15.7279 32.8404L15.5318 33.4651L15.7123 33.4136L15.9761 34.3754L18.1707 38.6292L18.3755 39.2174L18.4431 39.1287L18.8493 37.9504L20.6022 38.2281L21.5203 38.8359L22.3021 37.6239L22.6614 37.7969L23.097 35.2033L24.3787 34.6736L25.453 34.5449L26.8353 34.2352L26.9577 34.5706L27.6163 34.694L27.8133 34.8058L27.8958 33.0534L27.3638 31.8156L24.4958 31.4704Z" fill="white"/>
<path d="M81.2343 41.3794V40C82.9331 38.2119 83.8324 35.8107 83.8324 33.3074V8.06954H79.2357C76.8874 8.06954 74.5891 8.98913 73.0402 10.7772H70.2422V5.61728H102.869V10.7772H100.171C98.5718 8.98913 96.1735 8.06954 93.8752 8.06954H89.3784V33.3074C89.3784 35.8107 90.1778 38.2119 91.8766 40V41.3794H81.2343ZM105.92 23.4983C105.92 13.0251 114.414 4.95312 124.857 4.95312C135.399 4.95312 143.843 13.0251 143.843 23.4983C143.843 34.0226 135.399 42.0435 124.857 42.0435C114.414 42.0435 105.92 34.0226 105.92 23.4983ZM113.515 26.3082C116.263 35.6063 123.158 41.3794 129.803 39.7956C136.548 38.2119 139.746 29.8844 137.048 20.6374C134.35 11.3392 126.655 5.82163 119.96 7.40538C113.265 8.98913 110.767 17.1122 113.515 26.3082ZM157.887 41.3794V40C159.585 38.2119 160.485 35.8107 160.485 33.3074V8.06954H155.888C153.54 8.06954 151.241 8.98913 149.693 10.7772H146.895V5.61728H179.521V10.7772H176.823C175.224 8.98913 172.826 8.06954 170.528 8.06954H166.031V33.3074C166.031 35.8107 166.83 38.2119 168.529 40V41.3794H157.887ZM181.174 41.3794V40L183.422 37.5477C183.672 37.2412 183.822 36.9857 184.022 36.5259L195.863 5.61728H201.259L213.151 36.4238C213.35 36.9347 213.65 37.2412 214.05 37.5988L216.798 40V41.3794H206.156V40L206.405 39.8467C207.655 38.9782 208.104 37.4966 207.555 36.0661L205.256 30.0888H188.818L186.32 36.5259C185.87 37.7521 186.22 39.1315 187.169 40V41.3794H181.174ZM189.618 28.0452H204.507L197.062 8.63151L189.618 28.0452ZM219.7 41.3794V40C221.348 38.2119 222.248 35.7596 222.248 33.3074V13.7404C222.248 11.2881 221.348 8.83587 219.7 7.04776V5.61728H230.342V7.04776C228.643 8.83587 227.794 11.2881 227.794 13.7404V39.0293H235.638C238.286 39.0293 240.834 38.2119 242.933 36.6281H244.532V41.3794H219.7ZM247.633 41.3794V40C249.282 38.2119 250.181 35.7596 250.181 33.3074V13.7404C250.181 11.2881 249.282 8.83587 247.633 7.04776V5.61728H258.276V7.04776C256.577 8.83587 255.727 11.2881 255.727 13.7404V39.0293H263.572C266.22 39.0293 268.768 38.2119 270.867 36.6281H272.465V41.3794H247.633ZM277.915 41.3794V40C279.614 38.2119 280.613 35.7596 280.613 33.2563V24.7755L271.42 9.85764C271.22 9.50002 270.92 9.1424 270.571 8.93805L267.773 7.04776V5.61728H277.865V7.04776L277.615 7.30321C276.766 8.32498 276.716 9.75546 277.316 10.7261L285.06 23.7538L293.504 10.9816C294.253 9.80655 294.054 8.06954 292.954 7.14994V5.61728H299V7.14994L297.501 8.12063C297.251 8.32498 297.001 8.58042 296.802 8.83587L286.009 24.8777V33.2563C286.009 35.7596 286.959 38.2119 288.658 40V41.3794H277.915Z" fill="white"/>
<path d="M86.9476 70.6227C87.0235 70.6227 87.0741 70.6744 87.0741 70.752V74.9695H76.8257C76.7498 74.9695 76.6992 74.9178 76.6992 74.8401C76.6992 74.7625 76.7498 74.7108 76.8257 74.7108H77.5596C77.8885 74.7108 78.091 74.452 78.091 74.1674V58.7205C78.091 58.4359 77.8885 58.1772 77.5596 58.1772H76.8257C76.7498 58.1772 76.6992 58.1254 76.6992 58.0478C76.6992 57.9702 76.7498 57.9184 76.8257 57.9184H80.9504C81.0263 57.9184 81.0769 57.9702 81.0769 58.0478C81.0769 58.1254 81.0263 58.1772 80.9504 58.1772H80.2166C79.8876 58.1772 79.6852 58.4359 79.6852 58.7205V74.1674C79.6852 74.452 79.8876 74.7108 80.2166 74.7108H83.7086C85.7836 74.7108 86.8211 73.0548 86.8211 71.2695V70.752C86.8211 70.6744 86.8717 70.6227 86.9476 70.6227ZM107.171 74.7108C107.247 74.7108 107.298 74.7625 107.298 74.8401C107.298 74.9178 107.247 74.9695 107.171 74.9695H102.059C101.984 74.9695 101.933 74.9178 101.933 74.8401C101.933 74.7625 101.984 74.7108 102.059 74.7108H102.97C103.477 74.7108 103.755 74.3227 103.578 73.8052L101.958 69.3289H95.3031L93.633 73.8052C93.4559 74.2709 93.7343 74.7108 94.2404 74.7108H95.1513C95.2272 74.7108 95.2778 74.7625 95.2778 74.8401C95.2778 74.9178 95.2272 74.9695 95.1513 74.9695H91.5834C91.5075 74.9695 91.4569 74.9178 91.4569 74.8401C91.4569 74.7625 91.5075 74.7108 91.5834 74.7108H92.1907C92.8486 74.7108 93.1523 74.3744 93.3547 73.8052L99.3266 57.8408H99.5796L105.374 73.831C105.552 74.2968 105.906 74.7108 106.614 74.7108H107.171ZM95.4044 69.0702H101.882L98.694 60.273L95.4044 69.0702ZM124.181 57.9184V62.3947C124.181 62.4723 124.13 62.524 124.054 62.524C123.978 62.524 123.928 62.4723 123.928 62.3947V61.101C123.928 59.3156 122.89 58.1772 120.815 58.1772H119.322C118.993 58.1772 118.791 58.4359 118.791 58.7205V74.1674C118.791 74.452 118.993 74.7108 119.322 74.7108H120.056C120.132 74.7108 120.183 74.7625 120.183 74.8401C120.183 74.9178 120.132 74.9695 120.056 74.9695H115.931C115.856 74.9695 115.805 74.9178 115.805 74.8401C115.805 74.7625 115.856 74.7108 115.931 74.7108H116.665C116.994 74.7108 117.197 74.452 117.197 74.1674V58.7205C117.197 58.4359 116.994 58.1772 116.665 58.1772H115.678C113.35 58.1772 112.06 59.0569 112.06 61.6184V62.3947C112.06 62.4723 112.009 62.524 111.933 62.524C111.857 62.524 111.807 62.4723 111.807 62.3947V57.9184H124.181ZM133.675 74.7108C133.751 74.7108 133.802 74.7625 133.802 74.8401C133.802 74.9178 133.751 74.9695 133.675 74.9695H129.55C129.474 74.9695 129.424 74.9178 129.424 74.8401C129.424 74.7625 129.474 74.7108 129.55 74.7108H130.284C130.613 74.7108 130.816 74.452 130.816 74.1674V58.7205C130.816 58.4359 130.613 58.1772 130.284 58.1772H129.55C129.474 58.1772 129.424 58.1254 129.424 58.0478C129.424 57.9702 129.474 57.9184 129.55 57.9184H133.675C133.751 57.9184 133.802 57.9702 133.802 58.0478C133.802 58.1254 133.751 58.1772 133.675 58.1772H132.941C132.612 58.1772 132.41 58.4359 132.41 58.7205V74.1674C132.41 74.452 132.612 74.7108 132.941 74.7108H133.675ZM153.038 57.9184C153.114 57.9184 153.165 57.9702 153.165 58.0478C153.165 58.1254 153.114 58.1772 153.038 58.1772H152.304C151.975 58.1772 151.773 58.4359 151.773 58.7205V74.9695H151.064L141.044 59.4968V74.1674C141.044 74.452 141.246 74.7108 141.575 74.7108H142.309C142.385 74.7108 142.435 74.7625 142.435 74.8401C142.435 74.9178 142.385 74.9695 142.309 74.9695H139.525C139.45 74.9695 139.399 74.9178 139.399 74.8401C139.399 74.7625 139.45 74.7108 139.525 74.7108H140.259C140.588 74.7108 140.791 74.452 140.791 74.1674V58.7205C140.791 58.4359 140.588 58.1772 140.259 58.1772H139.525C139.45 58.1772 139.399 58.1254 139.399 58.0478C139.399 57.9702 139.45 57.9184 139.525 57.9184H141.955L151.52 72.6926V58.7205C151.52 58.4359 151.317 58.1772 150.988 58.1772H150.255C150.179 58.1772 150.128 58.1254 150.128 58.0478C150.128 57.9702 150.179 57.9184 150.255 57.9184H153.038ZM183.439 74.7108C183.515 74.7108 183.566 74.7625 183.566 74.8401C183.566 74.9178 183.515 74.9695 183.439 74.9695H178.327C178.252 74.9695 178.201 74.9178 178.201 74.8401C178.201 74.7625 178.252 74.7108 178.327 74.7108H179.238C179.745 74.7108 180.023 74.3227 179.846 73.8052L178.226 69.3289H171.571L169.901 73.8052C169.724 74.2709 170.002 74.7108 170.508 74.7108H171.419C171.495 74.7108 171.546 74.7625 171.546 74.8401C171.546 74.9178 171.495 74.9695 171.419 74.9695H167.851C167.775 74.9695 167.725 74.9178 167.725 74.8401C167.725 74.7625 167.775 74.7108 167.851 74.7108H168.459C169.117 74.7108 169.42 74.3744 169.623 73.8052L175.595 57.8408H175.848L181.642 73.831C181.82 74.2968 182.174 74.7108 182.882 74.7108H183.439ZM171.672 69.0702H178.15L174.962 60.273L171.672 69.0702ZM196.906 75.0471H196.653L190.074 58.9275V74.1674C190.074 74.452 190.276 74.7108 190.605 74.7108H191.339C191.415 74.7108 191.466 74.7625 191.466 74.8401C191.466 74.9178 191.415 74.9695 191.339 74.9695H188.556C188.48 74.9695 188.429 74.9178 188.429 74.8401C188.429 74.7625 188.48 74.7108 188.556 74.7108H189.289C189.618 74.7108 189.821 74.452 189.821 74.1674V58.7205C189.821 58.4359 189.618 58.1772 189.289 58.1772H188.556C188.48 58.1772 188.429 58.1254 188.429 58.0478C188.429 57.9702 188.48 57.9184 188.556 57.9184H191.39L197.463 72.822L203.131 57.9184H205.965C206.041 57.9184 206.092 57.9702 206.092 58.0478C206.092 58.1254 206.041 58.1772 205.965 58.1772H205.231C204.902 58.1772 204.7 58.4359 204.7 58.7205V74.1674C204.7 74.452 204.902 74.7108 205.231 74.7108H205.965C206.041 74.7108 206.092 74.7625 206.092 74.8401C206.092 74.9178 206.041 74.9695 205.965 74.9695H201.84C201.765 74.9695 201.714 74.9178 201.714 74.8401C201.714 74.7625 201.765 74.7108 201.84 74.7108H202.574C202.903 74.7108 203.106 74.452 203.106 74.1674V58.7205L196.906 75.0471ZM222.519 70.3639C222.595 70.3639 222.646 70.4157 222.646 70.4933V74.9695H211.816C211.74 74.9695 211.689 74.9178 211.689 74.8401C211.689 74.7625 211.74 74.7108 211.816 74.7108H212.549C212.878 74.7108 213.081 74.452 213.081 74.1674V58.7205C213.081 58.4359 212.878 58.1772 212.549 58.1772H211.816C211.74 58.1772 211.689 58.1254 211.689 58.0478C211.689 57.9702 211.74 57.9184 211.816 57.9184H222.519V62.3947C222.519 62.4723 222.469 62.524 222.393 62.524C222.317 62.524 222.266 62.4723 222.266 62.3947V61.101C222.266 59.3156 221.229 58.1772 219.154 58.1772H215.206C214.877 58.1772 214.675 58.4359 214.675 58.7205V65.9394H217.13C219.255 65.9394 219.306 65.1891 219.306 64.1541V63.8695C219.306 63.7919 219.356 63.7401 219.432 63.7401C219.508 63.7401 219.559 63.7919 219.559 63.8695V68.2681C219.559 68.3457 219.508 68.3975 219.432 68.3975C219.356 68.3975 219.306 68.3457 219.306 68.2681V67.9576C219.306 66.9485 219.255 66.1982 217.13 66.1982H214.675V74.1674C214.675 74.452 214.877 74.7108 215.206 74.7108H219.28C221.355 74.7108 222.393 73.5723 222.393 71.787V70.4933C222.393 70.4157 222.443 70.3639 222.519 70.3639ZM241.933 73.9345C242.009 73.9345 242.06 73.9863 242.06 74.0639C242.06 74.2709 241.225 75.0989 240.111 75.0989C235.683 75.0989 240.389 66.5863 233.203 66.5863H232.343V74.1674C232.343 74.452 232.545 74.7108 232.874 74.7108H233.608C233.684 74.7108 233.734 74.7625 233.734 74.8401C233.734 74.9178 233.684 74.9695 233.608 74.9695H229.483C229.407 74.9695 229.357 74.9178 229.357 74.8401C229.357 74.7625 229.407 74.7108 229.483 74.7108H230.217C230.546 74.7108 230.748 74.452 230.748 74.1674V58.7205C230.748 58.4359 230.546 58.1772 230.217 58.1772H229.483C229.407 58.1772 229.357 58.1254 229.357 58.0478C229.357 57.9702 229.407 57.9184 229.483 57.9184H234.291C237.378 57.9184 239.681 59.1863 239.681 61.9289C239.681 64.4128 237.783 66.0947 234.595 66.4569C241.376 67.3108 238.087 74.6073 240.643 74.6073C241.478 74.6073 241.731 73.9345 241.933 73.9345ZM232.343 66.3275H233.633C236.923 66.3275 238.036 63.973 238.036 61.9289C238.036 59.4968 236.923 58.1772 234.013 58.1772H232.874C232.545 58.1772 232.343 58.4359 232.343 58.7205V66.3275ZM251.048 74.7108C251.124 74.7108 251.174 74.7625 251.174 74.8401C251.174 74.9178 251.124 74.9695 251.048 74.9695H246.923C246.847 74.9695 246.797 74.9178 246.797 74.8401C246.797 74.7625 246.847 74.7108 246.923 74.7108H247.657C247.986 74.7108 248.188 74.452 248.188 74.1674V58.7205C248.188 58.4359 247.986 58.1772 247.657 58.1772H246.923C246.847 58.1772 246.797 58.1254 246.797 58.0478C246.797 57.9702 246.847 57.9184 246.923 57.9184H251.048C251.124 57.9184 251.174 57.9702 251.174 58.0478C251.174 58.1254 251.124 58.1772 251.048 58.1772H250.314C249.985 58.1772 249.783 58.4359 249.783 58.7205V74.1674C249.783 74.452 249.985 74.7108 250.314 74.7108H251.048ZM269.702 60.7128C269.702 59.652 268.083 58.0996 265.046 58.0996C261.554 58.0996 259.074 60.6093 259.074 66.4569C259.074 71.5024 261.048 74.6849 265.046 74.6849C268.032 74.6849 269.981 72.5632 270.411 71.3989C270.436 71.3213 270.487 71.2954 270.537 71.2954C270.639 71.2954 270.689 71.373 270.664 71.4765C270.461 72.1234 269.829 73.0289 268.867 73.7534C267.88 74.5038 266.514 75.0989 264.894 75.0989C260.112 75.0989 257.43 71.4506 257.43 66.4569C257.43 60.6093 260.77 57.7891 264.793 57.7891C268.564 57.7891 270.715 59.8849 270.715 61.9031C270.715 63.0156 270.158 63.4814 269.626 63.4814C269.12 63.4814 268.64 63.0933 268.64 62.4723C268.64 61.5926 269.702 61.4373 269.702 60.7128ZM291.874 74.7108C291.95 74.7108 292.001 74.7625 292.001 74.8401C292.001 74.9178 291.95 74.9695 291.874 74.9695H286.763C286.687 74.9695 286.636 74.9178 286.636 74.8401C286.636 74.7625 286.687 74.7108 286.763 74.7108H287.674C288.18 74.7108 288.458 74.3227 288.281 73.8052L286.661 69.3289H280.006L278.336 73.8052C278.159 74.2709 278.437 74.7108 278.944 74.7108H279.855C279.93 74.7108 279.981 74.7625 279.981 74.8401C279.981 74.9178 279.93 74.9695 279.855 74.9695H276.287C276.211 74.9695 276.16 74.9178 276.16 74.8401C276.16 74.7625 276.211 74.7108 276.287 74.7108H276.894C277.552 74.7108 277.855 74.3744 278.058 73.8052L284.03 57.8408H284.283L290.078 73.831C290.255 74.2968 290.609 74.7108 291.318 74.7108H291.874ZM280.108 69.0702H286.586L283.397 60.273L280.108 69.0702Z" fill="white"/>
</g>
<defs>
<clipPath id="clip0_1411_20">
<rect width="299" height="80" fill="white"/>
</clipPath>
</defs>
</svg>
