<svg width="24" height="24" viewBox="0 0 24 24" fill="none" xmlns="http://www.w3.org/2000/svg">
<path d="M7 13H1V1H19V8.171" stroke="#C47900" stroke-width="1.5" stroke-linecap="square"/>
<path d="M11 13V16C11 17.657 13.686 19 17 19C20.314 19 23 17.657 23 16V13" stroke="#C47900" stroke-width="1.5" stroke-linecap="square"/>
<path d="M11 16V20C11 21.657 13.686 23 17 23C20.314 23 23 21.657 23 20V16" stroke="#C47900" stroke-width="1.5" stroke-linecap="square"/>
<path d="M17 15C20.3137 15 23 13.6569 23 12C23 10.3431 20.3137 9 17 9C13.6863 9 11 10.3431 11 12C11 13.6569 13.6863 15 17 15Z" stroke="#C47900" stroke-width="1.5" stroke-linecap="square"/>
<path d="M10 8C10.4142 8 10.75 7.66421 10.75 7.25C10.75 6.83579 10.4142 6.5 10 6.5C9.58579 6.5 9.25 6.83579 9.25 7.25C9.25 7.66421 9.58579 8 10 8Z" stroke="#C47900" stroke-width="2" stroke-linecap="round" stroke-linejoin="round"/>
</svg>
