<svg width="24" height="24" viewBox="0 0 24 24" fill="none" xmlns="http://www.w3.org/2000/svg">
<path d="M0.998047 23H22.998" stroke="#C47900" stroke-width="1.5" stroke-linecap="square" stroke-linejoin="round"/>
<path d="M12.728 4.48598L7.99903 1.33398L5.33203 2.22298L8.48503 5.90098" stroke="#C47900" stroke-width="1.5" stroke-linecap="square"/>
<path d="M22.8985 6.36737C22.8158 6.11757 22.6846 5.88654 22.5124 5.68754C22.3403 5.48853 22.1305 5.32546 21.8952 5.20766C21.6599 5.08987 21.4037 5.01967 21.1412 5.00109C20.8787 4.9825 20.6151 5.0159 20.3655 5.09937L6.59855 9.69237L3.93355 8.14637L1.68555 8.88337L3.84455 12.9994H9.32255L21.6305 8.89937C21.8802 8.81664 22.1112 8.68547 22.3101 8.51337C22.509 8.34127 22.672 8.13162 22.7898 7.89642C22.9076 7.66123 22.9778 7.40511 22.9965 7.14273C23.0151 6.88035 22.9819 6.61687 22.8985 6.36737Z" stroke="#C47900" stroke-width="1.5" stroke-linecap="square"/>
<path d="M11.5 13L10 19.9993H13L17 11" stroke="#C47900" stroke-width="1.5" stroke-linecap="square"/>
</svg>
